<svg width="169" height="30" viewBox="0 0 169 30" fill="none" xmlns="http://www.w3.org/2000/svg">
<path d="M53.3943 18.3035H48.1336L47.0418 21.3383C46.9966 21.4604 46.9038 21.501 46.7682 21.501H44.1279C43.9697 21.501 43.9246 21.44 43.9697 21.2954L48.5251 9.46579C48.6155 9.26016 48.7059 9.01385 48.7284 8.23425C48.7284 8.13256 48.7962 8.09188 48.8866 8.09188H52.5083C52.6212 8.09188 52.6689 8.11222 52.6915 8.19357L57.8819 21.3157C57.9271 21.4378 57.9045 21.4988 57.7464 21.4988H54.7848C54.6718 21.4988 54.6015 21.4581 54.5338 21.3768L53.3943 18.3035ZM48.9518 15.7591H52.5284C52.0967 14.4055 51.1856 11.9244 50.7288 10.4488H50.7062C50.3423 11.8453 49.5467 14.0982 48.9518 15.7591ZM63.9458 21.7044C60.575 21.7044 58.0024 20.0029 58.0024 16.5184C58.0024 13.5672 60.4395 11.1267 64.6059 11.1267C64.7891 11.1267 64.9924 11.1267 65.3363 11.147V7.10665C65.3363 7.00496 65.404 6.96429 65.4944 6.96429H68.3857C68.4761 6.96429 68.4987 7.00496 68.4987 7.08631V19.2029C68.4987 19.6955 68.5439 20.3102 68.589 20.7011C68.589 20.8231 68.5665 20.8638 68.4535 20.9067C67.0254 21.4445 65.4919 21.7157 63.9458 21.7044ZM65.3337 19.1622V13.5853C65.1053 13.5242 64.8092 13.5039 64.4904 13.5039C62.7611 13.5039 61.2577 14.4462 61.2577 16.3737C61.2577 18.403 62.5553 19.2843 64.2645 19.2843C64.6511 19.2865 65.015 19.2458 65.3337 19.1622ZM75.6669 11.1267C79.3112 11.1267 81.2011 13.6079 81.2011 16.3534C81.2011 19.5735 78.9021 21.7067 75.5991 21.7067C71.7289 21.7067 69.9971 19.0809 69.9971 16.437C69.9971 13.5242 72.138 11.1244 75.6669 11.1267ZM75.5313 13.5039C74.1886 13.5039 73.1871 14.5502 73.1871 16.3941C73.1871 18.177 74.1208 19.3249 75.6694 19.3249C76.9896 19.3249 77.9935 18.3194 77.9935 16.4348C77.991 14.8168 77.2381 13.5039 75.5313 13.5039ZM82.8577 6.96429H85.6135C85.7942 6.96429 85.8419 7.00496 85.8419 7.14732L85.8645 11.3504C86.4342 11.1854 87.0943 11.1244 87.777 11.1244C91.1252 11.1244 93.241 13.2553 93.241 16.0032C93.241 19.8176 89.8702 21.7022 86.3865 21.7022C85.2019 21.7022 83.9745 21.5801 82.8351 21.2299C82.7422 21.2073 82.6769 21.1327 82.6744 21.0468V7.12699C82.6744 7.00496 82.7422 6.96429 82.8577 6.96429ZM90.0083 16.2721C90.0083 14.4055 88.801 13.5242 87.1847 13.5242C86.4794 13.5242 86.1606 13.6259 85.8645 13.7073V19.2639C86.1381 19.3046 86.4116 19.3249 86.7078 19.3249C88.4145 19.3272 90.0083 18.3849 90.0083 16.2721ZM101.862 17.1737H97.3998C97.5128 18.342 98.4465 19.3046 100.655 19.3046C101.614 19.3114 102.565 19.1532 103.456 18.8323C103.549 18.7916 103.617 18.812 103.617 18.9137V20.8615C103.617 21.0242 103.572 21.0672 103.456 21.1282C102.545 21.4965 101.544 21.7022 99.9499 21.7022C95.6906 21.7022 94.1872 19.0583 94.1872 16.5364C94.1872 13.6869 96.0997 11.1244 99.6763 11.1244C103.137 11.1244 104.503 13.5039 104.503 15.5535C104.503 16.1681 104.458 16.7014 104.39 16.907C104.367 17.0087 104.322 17.0494 104.209 17.072C103.89 17.133 103.024 17.1737 101.862 17.1737ZM97.3998 15.1648H100.359C101.089 15.1648 101.431 15.1445 101.498 15.1219C101.521 15.1015 101.521 15.0202 101.521 14.9998C101.521 14.4869 101.064 13.3593 99.5634 13.3593C98.1277 13.3615 97.5354 14.3242 97.3998 15.1648ZM113.962 16.3127V21.3361C113.962 21.4604 113.895 21.501 113.782 21.501H110.958C110.845 21.501 110.8 21.44 110.8 21.3383V8.23425C110.8 8.13256 110.845 8.09188 110.981 8.09188H119.999C120.134 8.09188 120.179 8.13256 120.202 8.25458L120.453 10.4691C120.476 10.5911 120.408 10.6341 120.27 10.6341H113.962V13.7502H119.632C119.768 13.7502 119.838 13.7909 119.838 13.9152V16.15C119.838 16.2743 119.768 16.315 119.655 16.315H113.962V16.3127ZM121.562 21.3157V11.495C121.562 11.373 121.63 11.3323 121.766 11.3323H124.567C124.702 11.3323 124.747 11.3527 124.747 11.495V21.3157C124.747 21.4581 124.702 21.4988 124.544 21.4988H121.788C121.653 21.501 121.562 21.4604 121.562 21.3157ZM123.179 10.2454C122.11 10.2454 121.402 9.58782 121.402 8.64552C121.402 7.70321 122.155 7.04563 123.201 7.04563C124.293 7.04563 124.953 7.72355 124.953 8.64552C124.956 9.60816 124.228 10.2454 123.179 10.2454ZM126.821 11.3301H129.303C129.438 11.3301 129.506 11.3707 129.576 11.4928C129.692 11.7797 129.782 12.2113 129.805 12.6407C130.708 11.6826 132.031 11.1289 133.427 11.1244C133.585 11.1244 133.63 11.1651 133.63 11.2871V13.7886C133.63 13.9107 133.585 13.931 133.401 13.931C131.762 13.8903 130.462 14.3197 129.963 14.8326V21.3316C129.963 21.4739 129.895 21.4943 129.76 21.4943H127.004C126.846 21.4943 126.775 21.4536 126.775 21.3112V14.2564C126.775 13.3548 126.753 12.1865 126.662 11.4476C126.662 11.3527 126.708 11.3301 126.821 11.3301ZM141.759 17.1737H137.297C137.412 18.342 138.343 19.3046 140.555 19.3046C141.513 19.3114 142.465 19.1532 143.356 18.8323C143.446 18.7916 143.516 18.812 143.516 18.9137V20.8615C143.516 21.0242 143.469 21.0672 143.356 21.1282C142.444 21.4965 141.443 21.7022 139.849 21.7022C135.59 21.7022 134.089 19.0583 134.089 16.5364C134.089 13.6869 136.002 11.1244 139.578 11.1244C143.039 11.1244 144.405 13.5039 144.405 15.5535C144.405 16.1681 144.36 16.7014 144.292 16.907C144.269 17.0087 144.224 17.0494 144.111 17.072C143.787 17.133 142.921 17.1737 141.759 17.1737ZM137.297 15.1648H140.258C140.989 15.1648 141.328 15.1445 141.398 15.1219C141.42 15.1015 141.42 15.0202 141.42 14.9998C141.42 14.4869 140.966 13.3593 139.463 13.3593C138.025 13.3615 137.432 14.3242 137.297 15.1648ZM146.325 13.7095H144.959C144.867 13.6892 144.821 13.6485 144.821 13.5265V11.4543C144.821 11.3527 144.867 11.3323 144.959 11.3323H146.325V11.0047C146.325 10.042 146.483 9.30309 146.804 8.68845C147.396 7.54052 148.488 6.78125 150.356 6.78125C150.812 6.78125 151.244 6.82192 151.518 6.90327C151.656 6.96654 151.678 7.00496 151.678 7.12924V9.15847C151.678 9.23982 151.633 9.3031 151.495 9.28276C151.292 9.21949 151.016 9.21948 150.835 9.21948C149.992 9.21948 149.492 9.63075 149.492 10.7787V11.3323H151.427C151.585 11.3323 151.608 11.373 151.608 11.4747V13.5265C151.608 13.6485 151.563 13.6892 151.427 13.7095H149.492V21.3157C149.492 21.4378 149.47 21.4988 149.264 21.4988H146.531C146.37 21.4988 146.325 21.4581 146.325 21.3157V13.7095ZM152.444 18.8753V7.14732C152.444 7.0253 152.512 6.96429 152.672 6.96429H155.405C155.541 6.96429 155.609 7.0253 155.609 7.14732V18.6289C155.609 19.2029 155.815 19.4085 156.362 19.4085C156.542 19.4085 156.59 19.4085 156.771 19.3882C156.861 19.3882 156.884 19.4085 156.884 19.5102V21.2932C156.884 21.4355 156.861 21.4762 156.748 21.5395C156.452 21.6411 156.04 21.7044 155.313 21.7044C153.696 21.7067 152.444 21.1508 152.444 18.8753ZM157.115 11.3301H160.167C160.282 11.3301 160.35 11.3504 160.395 11.4724C161.693 14.9592 162.398 17.1104 162.694 18.1567C163.447 16.0032 164.152 14.0349 165.018 11.4724C165.063 11.3707 165.154 11.3301 165.269 11.3301H168.002C168.161 11.3301 168.183 11.3911 168.138 11.5131C166.522 16.0845 163.994 21.7654 162.285 25.2499C162.24 25.3516 162.195 25.3923 161.989 25.4126L159.12 25.5979C158.962 25.5979 158.917 25.5369 158.985 25.4126C159.667 24.2037 160.352 22.8298 161.08 21.2932C161.125 21.1689 161.148 21.1079 161.103 20.9655C160.465 19.5509 158.302 14.7106 156.959 11.4928C156.911 11.3933 156.979 11.3301 157.115 11.3301Z" fill="white" fill-opacity="0.992157"/>
<path d="M6.41848 0H28.4928C31.8359 0 34.5441 2.44049 34.5441 5.44818V24.5518C34.5441 27.5618 31.8334 30 28.4928 30H6.41848C3.07534 30 0.367188 27.5595 0.367188 24.5518V5.44818C0.367188 2.43823 3.07534 0 6.41848 0Z" fill="white"/>
<path d="M19.0255 20.0972C19.0255 20.2237 18.9101 20.3277 18.7695 20.3277C18.629 20.3277 18.5135 20.2237 18.5135 20.0972C18.5135 19.9706 18.629 19.8667 18.7695 19.8667C18.9101 19.8667 19.0255 19.9684 19.0255 20.0972ZM18.5135 20.6508C18.4382 20.6508 18.3704 20.6779 18.3152 20.7141C18.3253 20.6847 18.3353 20.6531 18.3353 20.6214C18.3353 20.461 18.1897 20.3299 18.0115 20.3299C17.8333 20.3299 17.6877 20.461 17.6877 20.6214C17.6877 20.7841 17.8333 20.9129 18.0115 20.9129C18.0793 20.9129 18.137 20.8903 18.1897 20.8587C18.1772 20.8926 18.1646 20.9287 18.1646 20.9649C18.1646 21.1389 18.3202 21.279 18.5135 21.279C18.7068 21.279 18.8624 21.1389 18.8624 20.9649C18.8624 20.7909 18.7042 20.6508 18.5135 20.6508ZM17.9061 21.349C17.8936 21.1592 17.7229 21.0101 17.5095 21.0101C17.4719 21.0101 17.4393 21.0214 17.4041 21.0282C17.4669 20.9672 17.5045 20.8881 17.5045 20.7999C17.5045 20.6124 17.3364 20.4587 17.1255 20.4587C16.9172 20.4587 16.7465 20.6101 16.7465 20.7999C16.7465 20.9897 16.9147 21.1411 17.1255 21.1411C17.1582 21.1411 17.1883 21.1321 17.2184 21.1253C17.1506 21.1909 17.108 21.2767 17.108 21.3716C17.108 21.5366 17.231 21.6677 17.3991 21.7129C17.3991 21.7174 17.3966 21.7219 17.3966 21.7264C17.3966 21.9411 17.5899 22.1151 17.8283 22.1151C18.0667 22.1151 18.26 21.9411 18.26 21.7264C18.26 21.5343 18.1069 21.3829 17.9061 21.349ZM16.9072 21.6993C16.9247 21.6541 16.9398 21.6089 16.9398 21.5592C16.9398 21.3536 16.7641 21.1886 16.5407 21.1683C16.596 21.105 16.6336 21.0282 16.6336 20.9423C16.6336 20.7638 16.493 20.6237 16.3073 20.5853C16.3927 20.522 16.4479 20.4293 16.4479 20.3231C16.4479 20.1898 16.3625 20.0791 16.2396 20.0203C16.4278 20.0136 16.5784 19.8757 16.5784 19.704C16.5784 19.5277 16.4203 19.3854 16.2245 19.3854C16.0287 19.3854 15.8706 19.5277 15.8706 19.704C15.8706 19.8237 15.9459 19.9232 16.0538 19.9797C15.8455 19.9842 15.6773 20.1356 15.6773 20.3231C15.6773 20.4836 15.8028 20.6146 15.9685 20.653C15.8706 20.7208 15.8028 20.8225 15.8028 20.9423C15.8028 21.1298 15.961 21.279 16.1617 21.3038C16.0965 21.3739 16.0538 21.4598 16.0538 21.5569C16.0538 21.7468 16.2069 21.9004 16.4052 21.9388C16.3726 21.9976 16.35 22.0631 16.35 22.1354C16.35 22.3817 16.5709 22.5806 16.8444 22.5806C17.118 22.5806 17.3389 22.3817 17.3389 22.1354C17.3414 21.9072 17.1506 21.7264 16.9072 21.6993ZM11.8347 18.9583C11.8347 19.1164 11.7343 19.2498 11.5913 19.3221C11.6164 19.3176 11.6415 19.3085 11.6691 19.3085C11.9301 19.3085 12.1409 19.4983 12.1409 19.7311C12.1409 19.7989 12.1209 19.8599 12.0882 19.9164C12.1711 19.8531 12.274 19.8102 12.3919 19.8102C12.6479 19.8102 12.8537 19.9955 12.8588 20.2237C12.909 20.0497 13.0746 19.9186 13.2829 19.9096C13.2403 19.8509 13.2076 19.7853 13.2076 19.7085C13.2076 19.5029 13.3934 19.3356 13.6218 19.3356C13.8502 19.3356 14.0359 19.5029 14.0359 19.7085C14.0359 19.9006 13.8727 20.052 13.6669 20.0723C13.7297 20.1446 13.7724 20.2282 13.7724 20.3254C13.7724 20.4361 13.7222 20.5333 13.6469 20.6079C13.7322 20.6824 13.7824 20.7819 13.7949 20.8926C13.8075 20.7864 13.8602 20.6915 13.9455 20.6214C13.8502 20.5491 13.7874 20.4429 13.7874 20.3231C13.7874 20.1152 13.9656 19.9503 14.1915 19.9322C14.1338 19.8689 14.0961 19.7921 14.0961 19.7062C14.0961 19.5752 14.179 19.4667 14.2944 19.4034C14.1237 19.3786 13.9907 19.252 13.9907 19.0893C13.9907 18.9108 14.1513 18.7662 14.3496 18.7662C14.5479 18.7662 14.7085 18.9108 14.7085 19.0893C14.7085 19.2023 14.6408 19.2972 14.5429 19.356C14.7412 19.3786 14.8943 19.5232 14.8943 19.7085C14.8943 19.8893 14.7437 20.0316 14.5504 20.0587C14.6232 20.1288 14.6709 20.2237 14.6709 20.3277C14.6709 20.4339 14.6232 20.5288 14.5479 20.6011C14.6684 20.6802 14.7512 20.8022 14.7512 20.9468C14.7512 21.0259 14.7211 21.096 14.6809 21.1592C14.839 21.2406 14.952 21.3875 14.952 21.5637C14.952 21.6134 14.9369 21.6609 14.9194 21.7061C14.9746 21.7287 15.0223 21.7603 15.0674 21.7965C15.0172 21.7287 14.9821 21.6518 14.9821 21.5637C14.9821 21.4711 15.0223 21.3897 15.0775 21.3197C14.9143 21.2587 14.7964 21.1163 14.7964 20.9468C14.7964 20.8271 14.8566 20.7208 14.9495 20.6485C14.824 20.5853 14.7361 20.4678 14.7361 20.3299C14.7361 20.1356 14.9043 19.9797 15.1151 19.9638C15.0373 19.9006 14.9846 19.8124 14.9846 19.7108C14.9846 19.5706 15.0775 19.4531 15.2105 19.4012C15.1904 19.4034 15.1729 19.4125 15.1528 19.4125C14.957 19.4125 14.8014 19.2701 14.8014 19.0938C14.8014 18.9176 14.9595 18.7752 15.1528 18.7752C15.3486 18.7752 15.5042 18.9176 15.5042 19.0938C15.5042 19.2227 15.4163 19.3356 15.2933 19.3831C15.3159 19.3786 15.336 19.3718 15.3611 19.3718C15.5694 19.3718 15.7376 19.5232 15.7376 19.7108C15.7376 19.8847 15.5895 20.0226 15.4038 20.0429C15.4991 20.1107 15.5644 20.2124 15.5644 20.3299C15.5644 20.4316 15.5192 20.5242 15.4439 20.5898C15.5895 20.6576 15.6924 20.7886 15.6924 20.9468C15.6924 21.0259 15.6598 21.096 15.6171 21.1592C15.8079 21.218 15.9484 21.3762 15.9484 21.566C15.9484 21.6202 15.9333 21.6699 15.9158 21.7174C16.1442 21.7784 16.3148 21.9592 16.3148 22.1851C16.3148 22.4586 16.0689 22.68 15.7652 22.68C15.5017 22.68 15.2933 22.5105 15.2381 22.2891C15.1829 22.5309 14.957 22.7162 14.6734 22.7162C14.4425 22.7162 14.2467 22.5941 14.1513 22.4179C14.0535 22.6145 13.8351 22.7523 13.5816 22.7523C13.3482 22.7523 13.1549 22.6326 13.0445 22.4631C12.9341 22.6416 12.7308 22.7681 12.4873 22.7681C12.2514 22.7681 12.0556 22.6484 11.9427 22.4789C11.8297 22.6506 11.6314 22.7704 11.3955 22.7704C11.1194 22.7704 10.886 22.6122 10.7956 22.393C10.6777 22.497 10.5171 22.5625 10.3389 22.5625C9.97994 22.5625 9.68879 22.3004 9.68879 21.9772C9.68879 21.9524 9.70134 21.9298 9.70385 21.9072C9.6386 21.9275 9.56832 21.9456 9.49302 21.9456C9.13662 21.9456 8.84799 21.6857 8.84799 21.3649C8.84799 21.2383 8.9007 21.1299 8.97599 21.0349C8.65724 21.0078 8.40625 20.7751 8.40625 20.4813C8.40625 20.2576 8.55433 20.0678 8.76265 19.9774C8.57692 19.8847 8.44641 19.7108 8.44641 19.5074C8.44641 19.2114 8.70743 18.9741 9.03372 18.9628C8.9283 18.8679 8.86305 18.7368 8.86305 18.5922C8.86305 18.2984 9.12658 18.0612 9.45287 18.0612C9.4629 18.0612 9.47043 18.0657 9.48047 18.0657C9.36753 17.9708 9.29223 17.8374 9.29223 17.686C9.29223 17.3968 9.55326 17.1618 9.87452 17.1618C9.89711 17.1618 9.91719 17.1708 9.94229 17.1731C9.81178 17.0782 9.72393 16.9403 9.72393 16.7776C9.72393 16.4929 9.97994 16.2602 10.2987 16.2602C10.3363 16.2602 10.369 16.2737 10.4041 16.2805C10.2585 16.1878 10.1556 16.0432 10.1556 15.8715C10.1556 15.5913 10.4091 15.3631 10.7204 15.3631C10.7731 15.3631 10.8182 15.3789 10.8659 15.3902C10.7028 15.302 10.5873 15.1484 10.5873 14.9653C10.5873 14.6874 10.8358 14.4637 11.1445 14.4637C11.2098 14.4637 11.27 14.4795 11.3277 14.4976C11.147 14.4162 11.019 14.2535 11.019 14.0592C11.019 13.7858 11.265 13.5643 11.5687 13.5643C11.7293 13.5643 11.8724 13.6299 11.9728 13.7293C12.0355 13.7044 12.1033 13.6886 12.1786 13.6886C12.3417 13.6886 12.4798 13.7632 12.5751 13.8694C12.6404 13.84 12.7082 13.8197 12.786 13.8197C12.9541 13.8197 13.0922 13.9033 13.175 14.0208C13.2377 13.9869 13.308 13.9643 13.3858 13.9643C13.5841 13.9643 13.7447 14.0886 13.7924 14.2535C13.8351 14.24 13.8803 14.2287 13.928 14.2287C14.1413 14.2287 14.317 14.3846 14.317 14.5789C14.317 14.6806 14.2668 14.771 14.189 14.8343C14.2292 14.8185 14.2743 14.8094 14.322 14.8094C14.5103 14.8094 14.6634 14.9473 14.6634 15.119C14.6634 15.2026 14.6257 15.2794 14.5655 15.3337C14.6207 15.2907 14.6885 15.2614 14.7688 15.2614C14.9369 15.2614 15.075 15.3834 15.075 15.5371C15.075 15.6885 14.9369 15.8127 14.7688 15.8127C14.6006 15.8127 14.4626 15.6907 14.4626 15.5371C14.4626 15.4625 14.4952 15.3947 14.5504 15.345C14.4902 15.3947 14.4099 15.4263 14.322 15.4263C14.1338 15.4263 13.9807 15.2885 13.9807 15.119C13.9807 15.0331 14.0183 14.9563 14.0811 14.8998C14.0359 14.9179 13.9832 14.9269 13.9305 14.9269C13.7623 14.9269 13.6218 14.8298 13.5691 14.6942C13.5138 14.7168 13.4536 14.7326 13.3883 14.7326C13.2503 14.7326 13.1323 14.6693 13.0545 14.5767C12.9792 14.6264 12.8914 14.6603 12.7885 14.6603C12.653 14.6603 12.535 14.6083 12.4497 14.5247C12.3718 14.5699 12.284 14.6015 12.1836 14.6015C12.0506 14.6015 11.9301 14.5518 11.8398 14.4772C11.7594 14.5179 11.6741 14.5473 11.5762 14.5473C11.511 14.5473 11.4532 14.5315 11.3955 14.5134C11.4482 14.536 11.4984 14.5654 11.5386 14.5993C11.6114 14.5631 11.6917 14.5383 11.782 14.5383C11.9351 14.5383 12.0682 14.5993 12.161 14.6942C12.2338 14.6535 12.3166 14.6219 12.407 14.6219C12.5626 14.6219 12.6931 14.6942 12.781 14.7981C12.8512 14.7529 12.9341 14.719 13.0294 14.719C13.2152 14.719 13.3683 14.8252 13.431 14.9721C13.4812 14.9518 13.5339 14.9405 13.5916 14.9405C13.8075 14.9405 13.9832 15.0987 13.9832 15.293C13.9832 15.3653 13.9531 15.4286 13.9129 15.4828C13.943 15.4738 13.9731 15.4647 14.0083 15.4647C14.199 15.4647 14.3546 15.6048 14.3546 15.7766C14.3546 15.8263 14.3396 15.8715 14.3145 15.9144C14.3622 15.8896 14.4124 15.8692 14.4726 15.8692C14.6433 15.8692 14.7813 15.9935 14.7813 16.1472C14.7813 16.3008 14.6433 16.4251 14.4726 16.4251C14.3019 16.4251 14.1639 16.3008 14.1639 16.1472C14.1639 16.1065 14.1739 16.0681 14.1915 16.0342C14.1363 16.0658 14.076 16.0884 14.0083 16.0884C13.8175 16.0884 13.6619 15.9483 13.6619 15.7766C13.6619 15.7178 13.6845 15.6681 13.7146 15.6207C13.677 15.632 13.6368 15.6433 13.5942 15.6433C13.4385 15.6433 13.3055 15.5597 13.2428 15.4399C13.18 15.4715 13.1097 15.4964 13.0319 15.4964C12.9064 15.4964 12.796 15.4467 12.7157 15.3676C12.6329 15.4308 12.5275 15.4738 12.412 15.4738C12.2915 15.4738 12.1811 15.4286 12.0983 15.3608C12.0104 15.4218 11.905 15.4647 11.7845 15.4647C11.7143 15.4647 11.649 15.4512 11.5888 15.4286C11.6465 15.4512 11.6967 15.4828 11.7419 15.5212C11.8222 15.4647 11.9201 15.4263 12.0305 15.4263C12.1736 15.4263 12.2991 15.4851 12.3869 15.5755C12.4647 15.5145 12.5626 15.4738 12.673 15.4738C12.8462 15.4738 12.9943 15.5664 13.0646 15.6998C13.1223 15.6704 13.1825 15.65 13.2528 15.65C13.4712 15.65 13.6469 15.8082 13.6469 16.0048C13.6469 16.05 13.6343 16.0929 13.6193 16.1314C13.6443 16.1268 13.6669 16.1178 13.692 16.1178C13.8853 16.1178 14.0434 16.2602 14.0434 16.4342C14.0434 16.4635 14.0334 16.4929 14.0233 16.52C14.0685 16.4974 14.1187 16.4794 14.1739 16.4794C14.3446 16.4794 14.4852 16.6059 14.4852 16.7596C14.4852 16.9132 14.3446 17.0398 14.1739 17.0398C14.0007 17.0398 13.8627 16.9132 13.8627 16.7596C13.8627 16.737 13.8702 16.7166 13.8778 16.694C13.8226 16.7257 13.7623 16.7483 13.692 16.7483C13.4988 16.7483 13.3407 16.6059 13.3407 16.4319C13.3407 16.398 13.3507 16.3664 13.3632 16.337C13.3281 16.346 13.293 16.3573 13.2553 16.3573C13.1123 16.3573 12.9893 16.2828 12.9215 16.1788C12.8512 16.224 12.7684 16.2556 12.6755 16.2556C12.5601 16.2556 12.4572 16.2127 12.3794 16.1494C12.3367 16.1901 12.2865 16.2218 12.2313 16.2443C12.2589 16.2398 12.284 16.2285 12.3141 16.2285C12.4773 16.2285 12.6128 16.3121 12.6906 16.4296C12.7559 16.389 12.8286 16.3596 12.914 16.3596C13.1323 16.3596 13.3105 16.52 13.3105 16.7166C13.3105 16.7415 13.3005 16.7641 13.2955 16.7889C13.3231 16.7844 13.3482 16.7754 13.3758 16.7754C13.5716 16.7754 13.7297 16.9177 13.7297 17.094C13.7297 17.1098 13.7222 17.1234 13.7196 17.1392C13.7673 17.1143 13.8175 17.094 13.8778 17.094C14.0484 17.094 14.189 17.2205 14.189 17.3742C14.189 17.5301 14.0484 17.6544 13.8778 17.6544C13.7071 17.6544 13.5665 17.5301 13.5665 17.3742C13.5665 17.3674 13.5716 17.3606 13.5716 17.3516C13.5138 17.3878 13.4511 17.4126 13.3758 17.4126C13.18 17.4126 13.0219 17.2703 13.0219 17.094C13.0219 17.0804 13.0294 17.0669 13.0319 17.0533C12.9943 17.0646 12.9566 17.0737 12.9165 17.0737C12.7835 17.0737 12.673 17.0104 12.6002 16.9223C12.5224 16.981 12.4271 17.0217 12.3166 17.0217C12.2087 17.0217 12.1108 16.9833 12.0355 16.9245C12.0154 16.9471 11.9979 16.9697 11.9753 16.9878C12.1183 16.9923 12.2388 17.0624 12.3166 17.1595C12.3869 17.1053 12.4747 17.0691 12.5751 17.0691C12.7985 17.0691 12.9792 17.2318 12.9792 17.433C12.9792 17.4397 12.9767 17.4443 12.9767 17.4488C13.0043 17.442 13.0294 17.433 13.0596 17.433C13.2553 17.433 13.416 17.5776 13.416 17.7538C13.416 17.9301 13.2553 18.0747 13.0596 18.0747C12.8713 18.0747 12.7182 17.9414 12.7082 17.7742C12.6655 17.7877 12.6228 17.799 12.5751 17.799C12.4547 17.799 12.3493 17.7493 12.274 17.6725C12.1936 17.7448 12.0807 17.7922 11.9552 17.7922C11.8523 17.7922 11.7619 17.7561 11.6841 17.7019C11.6741 17.7177 11.6616 17.7335 11.649 17.7471C11.7695 17.7606 11.8724 17.8148 11.9452 17.8939C12.0205 17.8261 12.1234 17.7832 12.2388 17.7832C12.4672 17.7832 12.6504 17.9504 12.6504 18.1538C12.6504 18.3594 12.4647 18.5244 12.2388 18.5244C12.1209 18.5244 12.018 18.4792 11.9427 18.4092C11.8598 18.5018 11.7368 18.5628 11.5938 18.5628M11.6339 21.0643C11.7293 21.1231 11.8096 21.1999 11.8523 21.2971C11.8674 21.2767 11.8799 21.2564 11.8975 21.2361C11.8272 21.1592 11.782 21.0643 11.777 20.9581C11.7394 21.0033 11.6892 21.0372 11.6339 21.0643ZM12.7408 21.1841C12.796 21.2315 12.8412 21.2858 12.8738 21.349C12.8864 21.3242 12.9064 21.3038 12.924 21.2813C12.8613 21.227 12.8211 21.1592 12.7935 21.0847C12.781 21.1208 12.7609 21.1524 12.7408 21.1841ZM13.7874 20.9943C13.7799 21.0575 13.7598 21.1163 13.7247 21.1705C13.8225 21.2406 13.8903 21.3355 13.9204 21.4485C13.9355 21.3942 13.9606 21.3445 13.9957 21.3016C13.8828 21.2315 13.805 21.1231 13.7874 20.9943ZM12.6329 20.5853C12.7082 20.6418 12.7634 20.7163 12.7935 20.8022C12.8236 20.7208 12.8763 20.6508 12.9466 20.5966C12.8813 20.5265 12.8362 20.4384 12.8337 20.339C12.8035 20.4429 12.7333 20.5288 12.6329 20.5853ZM11.6666 20.1559C11.4934 20.1559 11.3478 20.0678 11.2675 19.9412C11.27 19.9593 11.2801 19.9751 11.2801 19.9932C11.2801 20.0746 11.2524 20.1469 11.2123 20.2147C11.2675 20.1988 11.3227 20.183 11.383 20.183C11.6666 20.183 11.895 20.3864 11.905 20.6418C11.9477 20.5966 11.9979 20.5604 12.0556 20.531C11.9703 20.4542 11.9201 20.3503 11.9201 20.2327C11.9201 20.165 11.9401 20.1039 11.9728 20.0474C11.89 20.113 11.7845 20.1559 11.6666 20.1559ZM11.3654 19.3808C11.2474 19.3808 11.142 19.3379 11.0592 19.2724C11.019 19.3831 10.9387 19.4712 10.8283 19.53C10.9914 19.5526 11.1244 19.6384 11.2022 19.7605C11.2022 19.7492 11.1947 19.7401 11.1947 19.7288C11.1947 19.5706 11.2951 19.4373 11.4407 19.365C11.4156 19.3718 11.393 19.3808 11.3654 19.3808ZM12.0129 16.2895C11.905 16.2895 11.8096 16.2511 11.7293 16.1969C11.7092 16.215 11.6841 16.224 11.659 16.2398C11.7795 16.2466 11.89 16.2895 11.9728 16.3618C12.0129 16.3234 12.0581 16.2941 12.1108 16.2715C12.0782 16.2782 12.0481 16.2895 12.0129 16.2895ZM11.5637 15.4263C11.5235 15.4105 11.4884 15.3834 11.4532 15.3585C11.4332 15.3698 11.4156 15.3834 11.393 15.3947C11.4532 15.3992 11.511 15.406 11.5637 15.4263ZM11.9853 13.6276C12.0656 13.6276 12.1384 13.6095 12.2062 13.5824C12.2991 13.6728 12.4271 13.7293 12.5726 13.7293C12.6555 13.7293 12.7333 13.7067 12.801 13.6728C12.8864 13.77 13.0119 13.8355 13.1574 13.8355C13.2403 13.8355 13.3156 13.8106 13.3833 13.7745C13.4586 13.8829 13.5841 13.9575 13.7372 13.9575C13.7924 13.9575 13.8451 13.9462 13.8928 13.9281C13.933 14.0818 14.0786 14.197 14.2593 14.197C14.4575 14.197 14.6157 14.0592 14.6357 13.8852C14.6834 14.0004 14.8014 14.0841 14.947 14.0841C15.1302 14.0841 15.2808 13.9507 15.2808 13.7835C15.2808 13.6186 15.1327 13.483 14.947 13.483C14.7763 13.483 14.6408 13.6005 14.6207 13.7496C14.573 13.6095 14.4299 13.5056 14.2593 13.5056C14.2191 13.5056 14.184 13.5169 14.1463 13.5259C14.1162 13.3406 13.948 13.196 13.7347 13.196C13.672 13.196 13.6142 13.2095 13.5615 13.2299C13.4837 13.0966 13.3331 13.0017 13.1549 13.0017C13.0947 13.0017 13.0344 13.0129 12.9817 13.0333C12.8914 12.909 12.7458 12.8231 12.5701 12.8231C12.5124 12.8231 12.4597 12.8367 12.407 12.8525C12.3091 12.735 12.1585 12.6514 11.9828 12.6514C11.6841 12.6514 11.4432 12.8683 11.4432 13.1372C11.4457 13.4107 11.6892 13.6276 11.9853 13.6276ZM12.4095 12.7124C12.4722 12.7124 12.5325 12.6988 12.5902 12.6808C12.6806 12.7892 12.8161 12.8638 12.9792 12.8638C13.047 12.8638 13.1097 12.8502 13.17 12.8299C13.2503 12.9429 13.3858 13.0197 13.544 13.0197C13.6117 13.0197 13.672 13.0062 13.7297 12.9813C13.7975 13.1056 13.938 13.1937 14.1011 13.1937C14.1463 13.1937 14.189 13.1824 14.2317 13.1711C14.2517 13.3451 14.4073 13.483 14.6056 13.483C14.7738 13.483 14.9118 13.3835 14.9645 13.2457C15.0172 13.3519 15.1327 13.4265 15.2707 13.4265C15.4565 13.4265 15.6046 13.2909 15.6046 13.1259C15.6046 12.9587 15.454 12.8254 15.2707 12.8254C15.1302 12.8254 15.0097 12.9045 14.9595 13.0175C14.9043 12.8887 14.7688 12.796 14.6056 12.796C14.5755 12.796 14.5479 12.8051 14.5178 12.8118C14.5128 12.6085 14.3295 12.4435 14.1011 12.4435C14.0535 12.4435 14.0108 12.4548 13.9681 12.4684C13.9029 12.3124 13.7397 12.2017 13.544 12.2017C13.4988 12.2017 13.4586 12.213 13.416 12.2243C13.3356 12.0774 13.1725 11.9757 12.9767 11.9757C12.9341 11.9757 12.8964 11.9893 12.8562 11.9983C12.7634 11.8582 12.6002 11.7611 12.407 11.7611C12.1133 11.7611 11.8749 11.9757 11.8749 12.2401C11.8774 12.4977 12.1158 12.7124 12.4095 12.7124ZM12.8312 11.7972C12.8788 11.7972 12.9215 11.7837 12.9667 11.7724C13.052 11.9012 13.2026 11.9938 13.3808 11.9938C13.431 11.9938 13.4762 11.9803 13.5214 11.969C13.5942 12.1045 13.7447 12.1994 13.9229 12.1994C13.9757 12.1994 14.0258 12.1882 14.0735 12.1723C14.1288 12.317 14.2793 12.4232 14.4601 12.4232C14.4977 12.4232 14.5328 12.4119 14.5705 12.4028C14.5705 12.4073 14.568 12.4119 14.568 12.4164C14.568 12.6039 14.7361 12.7576 14.947 12.7576C15.0925 12.7576 15.213 12.6808 15.2783 12.5746C15.3285 12.6853 15.4489 12.7621 15.5895 12.7621C15.7752 12.7621 15.9258 12.6265 15.9258 12.4593C15.9258 12.2921 15.7752 12.1565 15.5895 12.1565C15.464 12.1565 15.3611 12.2198 15.3034 12.3102C15.2532 12.1746 15.1151 12.0774 14.9495 12.0774C14.9219 12.0774 14.8968 12.0865 14.8692 12.091C14.8717 12.0774 14.8792 12.0661 14.8792 12.0503C14.8792 11.8447 14.6935 11.6775 14.4651 11.6775C14.4274 11.6775 14.3923 11.6888 14.3572 11.6978C14.307 11.5215 14.1388 11.3882 13.928 11.3882C13.8953 11.3882 13.8677 11.3995 13.8376 11.404C13.7698 11.2368 13.5942 11.1148 13.3833 11.1148C13.3557 11.1148 13.3331 11.1238 13.308 11.1283C13.2252 10.9679 13.047 10.8527 12.8362 10.8527C12.5475 10.8527 12.3141 11.0628 12.3141 11.3227C12.3091 11.5871 12.5425 11.7972 12.8312 11.7972ZM13.2553 10.882C13.2879 10.882 13.313 10.8707 13.3432 10.8662C13.4159 11.0199 13.5866 11.1261 13.7824 11.1261C13.82 11.1261 13.8552 11.1148 13.8903 11.1057C13.9506 11.2639 14.1112 11.3792 14.307 11.3792C14.3496 11.3792 14.3898 11.3679 14.4299 11.3566C14.4676 11.5261 14.6257 11.6549 14.824 11.6549C14.8616 11.6549 14.8943 11.6436 14.9294 11.6368C14.9244 11.6571 14.9143 11.6775 14.9143 11.7001C14.9143 11.8876 15.0825 12.039 15.2908 12.039C15.4163 12.039 15.5242 11.978 15.592 11.8921C15.6372 12.0142 15.7602 12.1023 15.9083 12.1023C16.094 12.1023 16.2471 11.9667 16.2471 11.7972C16.2471 11.63 16.0965 11.4922 15.9083 11.4922C15.8003 11.4922 15.7075 11.5419 15.6447 11.6119C15.602 11.4696 15.4615 11.3611 15.2883 11.3611C15.2607 11.3611 15.2381 11.3701 15.213 11.3747C15.2205 11.3453 15.2331 11.3182 15.2331 11.2865C15.2331 11.0832 15.0499 10.9182 14.824 10.9182C14.7964 10.9182 14.7688 10.9272 14.7437 10.934C14.7161 10.7352 14.5379 10.5815 14.3095 10.5815C14.2869 10.5815 14.2668 10.5905 14.2442 10.5928C14.194 10.403 14.0133 10.2606 13.7874 10.2606C13.7698 10.2606 13.7573 10.2674 13.7397 10.2697C13.6694 10.0866 13.4837 9.95555 13.2578 9.95555C12.9742 9.95555 12.7433 10.1634 12.7433 10.4188C12.7408 10.6741 12.9717 10.882 13.2553 10.882ZM13.6795 9.96685C13.7021 9.96685 13.7222 9.95781 13.7422 9.95555C13.8025 10.1295 13.9757 10.2584 14.189 10.2584C14.2166 10.2584 14.2417 10.2471 14.2693 10.2425C14.3095 10.4233 14.4776 10.5612 14.691 10.5612C14.7236 10.5612 14.7537 10.5499 14.7838 10.5431C14.7964 10.7329 14.9696 10.8866 15.1829 10.8866C15.218 10.8866 15.2507 10.8753 15.2833 10.8685C15.2707 10.9024 15.2582 10.9408 15.2582 10.9792C15.2582 11.1645 15.4238 11.3159 15.6297 11.3159C15.7752 11.3159 15.8982 11.2391 15.961 11.1283C15.9585 11.1419 15.9534 11.1532 15.9534 11.1668C15.9534 11.3362 16.1065 11.4718 16.2923 11.4718C16.478 11.4718 16.6311 11.334 16.6311 11.1668C16.6311 10.9973 16.478 10.8594 16.2923 10.8594C16.1592 10.8594 16.0463 10.9295 15.9911 11.0289C15.9936 11.0108 16.0011 10.9973 16.0011 10.9792C16.0011 10.7939 15.8355 10.6448 15.6297 10.6448C15.6046 10.6448 15.582 10.6538 15.5569 10.6583C15.5744 10.6154 15.587 10.5725 15.587 10.5227C15.587 10.3216 15.4063 10.1589 15.1829 10.1589C15.1628 10.1589 15.1453 10.1657 15.1277 10.1702C15.1277 10.1702 15.1277 10.1702 15.1277 10.168C15.1277 9.94877 14.9319 9.77252 14.6885 9.77252C14.6734 9.77252 14.6608 9.77929 14.6483 9.77929C14.6182 9.56914 14.4274 9.40418 14.1865 9.40418C14.1764 9.40418 14.1714 9.4087 14.1614 9.4087C14.1087 9.20759 13.9179 9.05166 13.677 9.05166C13.3984 9.05166 13.17 9.25504 13.17 9.50813C13.17 9.76122 13.3984 9.96685 13.6795 9.96685ZM14.1087 9.05619C14.1288 9.05619 14.1463 9.04715 14.1639 9.04489C14.199 9.24826 14.3848 9.40644 14.6182 9.40644C14.6483 9.40644 14.6734 9.39514 14.7035 9.39062C14.706 9.6053 14.8993 9.77929 15.1377 9.77929C15.1854 9.77929 15.2306 9.768 15.2733 9.75444C15.2682 9.77704 15.2582 9.79963 15.2582 9.82223C15.2582 10.0233 15.4414 10.1883 15.6648 10.1883C15.7326 10.1883 15.7928 10.1702 15.848 10.1431C15.7953 10.2019 15.7602 10.2719 15.7602 10.3533C15.7602 10.5408 15.9283 10.6922 16.1367 10.6922C16.345 10.6922 16.5131 10.5408 16.5131 10.3533C16.5131 10.1657 16.345 10.0143 16.1367 10.0143C16.0764 10.0143 16.0237 10.0279 15.9735 10.0505C16.0312 9.98719 16.0689 9.91036 16.0689 9.82223C16.0689 9.62111 15.8882 9.45616 15.6623 9.45616C15.6221 9.45616 15.587 9.46745 15.5518 9.47649C15.5594 9.44712 15.5719 9.41774 15.5719 9.38611C15.5719 9.16917 15.3762 8.99291 15.1352 8.99291C15.1151 8.99291 15.0976 8.99969 15.08 9.00421C15.08 8.99743 15.085 8.99291 15.085 8.98613C15.085 8.75338 14.8767 8.56583 14.6182 8.56583C14.6106 8.56583 14.6031 8.57034 14.5956 8.57034C14.573 8.34211 14.3647 8.1636 14.1062 8.1636C13.8326 8.1636 13.6092 8.36472 13.6092 8.61102C13.6092 8.85733 13.8351 9.05619 14.1087 9.05619ZM14.7311 8.24269C14.7637 8.24269 14.7939 8.23139 14.824 8.22461C14.8215 8.23817 14.8139 8.25172 14.8139 8.26754C14.8139 8.49803 15.0223 8.68559 15.2783 8.68559C15.3285 8.68559 15.3762 8.67204 15.4213 8.66074C15.4088 8.69689 15.3962 8.73305 15.3962 8.77372C15.3962 8.99292 15.592 9.16917 15.8355 9.16917C15.9334 9.16917 16.0212 9.13527 16.094 9.08556C16.0287 9.15109 15.9861 9.23696 15.9861 9.33187C15.9861 9.53976 16.1718 9.70698 16.4027 9.70698C16.6336 9.70698 16.8193 9.53976 16.8193 9.33187C16.8193 9.12397 16.6336 8.95676 16.4027 8.95676C16.3098 8.95676 16.2295 8.9884 16.1592 9.03359C16.2295 8.96354 16.2747 8.87315 16.2747 8.77146C16.2747 8.55227 16.0789 8.37601 15.8355 8.37601C15.7928 8.37601 15.7526 8.38731 15.715 8.39861C15.73 8.35568 15.7451 8.31274 15.7451 8.26754C15.7451 8.03705 15.5368 7.84949 15.2808 7.84949C15.2557 7.84949 15.2331 7.85853 15.208 7.86305C15.2105 7.84271 15.2205 7.82464 15.2205 7.80204C15.2205 7.55799 15.0022 7.3614 14.7311 7.3614C14.4601 7.3614 14.2417 7.55799 14.2417 7.80204C14.2417 8.04383 14.4601 8.24269 14.7311 8.24269ZM15.5795 7.61901C15.6347 7.61901 15.6849 7.60545 15.7351 7.59189C15.7075 7.64386 15.6899 7.70261 15.6899 7.76589C15.6899 7.99638 15.8957 8.18167 16.1517 8.18167C16.4077 8.18167 16.6135 7.99638 16.6135 7.76589C16.6135 7.53539 16.4077 7.3501 16.1517 7.3501C16.1015 7.3501 16.0538 7.36366 16.0086 7.37721C16.0388 7.32072 16.0614 7.25745 16.0614 7.18966C16.0614 6.95013 15.8455 6.75805 15.5795 6.75805C15.3134 6.75805 15.0976 6.95239 15.0976 7.18966C15.0976 7.42467 15.3134 7.61901 15.5795 7.61901ZM16.5834 7.2326C16.8444 7.2326 17.0553 7.04278 17.0553 6.80777C17.0553 6.57276 16.8444 6.38294 16.5834 6.38294C16.3224 6.38294 16.1115 6.57276 16.1115 6.80777C16.1115 7.04278 16.3224 7.2326 16.5834 7.2326ZM17.6652 7.11735C17.9212 7.11735 18.1295 6.92979 18.1295 6.6993C18.1295 6.46881 17.9212 6.28125 17.6652 6.28125C17.4092 6.28125 17.2008 6.46881 17.2008 6.6993C17.2008 6.92979 17.4092 7.11735 17.6652 7.11735ZM18.7394 7.28005C18.9904 7.28005 19.1937 7.09701 19.1937 6.87104C19.1937 6.64507 18.9904 6.46203 18.7394 6.46203C18.4884 6.46203 18.2851 6.64507 18.2851 6.87104C18.2851 7.09701 18.4884 7.28005 18.7394 7.28005ZM20.1022 8.08224C20.0596 8.07095 20.0169 8.05739 19.9692 8.05739C19.7207 8.05739 19.5174 8.24043 19.5174 8.46414C19.5174 8.52063 19.53 8.57261 19.5526 8.62232C19.52 8.61554 19.4898 8.60425 19.4572 8.60425C19.2087 8.60425 19.0054 8.78728 19.0054 9.01099C19.0054 9.09686 19.0406 9.17143 19.0908 9.2347C19.0606 9.23018 19.0355 9.21888 19.0029 9.21888C18.757 9.21888 18.5562 9.39967 18.5562 9.62112C18.5562 9.72055 18.6013 9.81093 18.6691 9.88098C18.6315 9.86969 18.5913 9.85839 18.5511 9.85839C18.3152 9.85839 18.1245 10.0301 18.1245 10.2425C18.1245 10.455 18.3152 10.6267 18.5511 10.6267C18.7871 10.6267 18.9778 10.455 18.9778 10.2425C18.9778 10.1476 18.9352 10.064 18.8724 9.99622C18.9151 10.0075 18.9552 10.0188 19.0029 10.0188C19.2489 10.0188 19.4497 9.83805 19.4497 9.61659C19.4497 9.53298 19.4145 9.46068 19.3669 9.39515C19.397 9.40193 19.4246 9.41096 19.4572 9.41096C19.7057 9.41096 19.909 9.22792 19.909 9.00421C19.909 8.94772 19.8964 8.89348 19.8738 8.84603C19.9065 8.85281 19.9366 8.86411 19.9692 8.86411C20.2177 8.86411 20.421 8.68333 20.421 8.45736C20.421 8.41442 20.4084 8.37601 20.3934 8.33534C20.4335 8.34664 20.4737 8.35793 20.5164 8.35793C20.7598 8.35793 20.9556 8.18167 20.9556 7.96248C20.9556 7.74329 20.7598 7.56703 20.5164 7.56703C20.2754 7.56703 20.0771 7.74329 20.0771 7.96248C20.0771 8.00993 20.0897 8.04609 20.1022 8.08224ZM24.5522 16.9652C24.5522 17.1392 24.7079 17.2793 24.9011 17.2793C25.0944 17.2793 25.25 17.1392 25.25 16.9652C25.25 16.7912 25.0944 16.6511 24.9011 16.6511C24.7079 16.6511 24.5522 16.7935 24.5522 16.9652ZM24.9915 17.8713C24.9915 18.0386 25.1421 18.1741 25.3278 18.1741C25.5135 18.1741 25.6641 18.0386 25.6641 17.8713C25.6641 17.7041 25.5135 17.5685 25.3278 17.5685C25.1421 17.5685 24.9915 17.7041 24.9915 17.8713ZM25.4282 18.7775C25.4282 18.9379 25.5713 19.0667 25.7495 19.0667C25.9277 19.0667 26.0707 18.9379 26.0707 18.7775C26.0707 18.617 25.9277 18.4882 25.7495 18.4882C25.5738 18.4882 25.4282 18.617 25.4282 18.7775ZM25.8473 19.6927C25.8473 19.8463 25.9854 19.9706 26.156 19.9706C26.3267 19.9706 26.4648 19.8463 26.4648 19.6927C26.4648 19.539 26.3267 19.4147 26.156 19.4147C25.9854 19.4147 25.8473 19.539 25.8473 19.6927ZM26.1887 20.4022C26.0255 20.4022 25.8925 20.522 25.8925 20.6689C25.8925 20.8158 26.0255 20.9355 26.1887 20.9355C26.3518 20.9355 26.4848 20.8158 26.4848 20.6689C26.4848 20.5197 26.3518 20.4022 26.1887 20.4022ZM25.7394 21.3016C25.5838 21.3016 25.4558 21.4146 25.4558 21.5569C25.4558 21.697 25.5813 21.8123 25.7394 21.8123C25.895 21.8123 26.023 21.6993 26.023 21.5569C26.0205 21.4146 25.895 21.3016 25.7394 21.3016ZM24.9764 21.9931C24.8283 21.9931 24.7079 22.1015 24.7079 22.2349C24.7079 22.3682 24.8283 22.4766 24.9764 22.4766C25.1245 22.4766 25.245 22.3682 25.245 22.2349C25.245 22.1038 25.1245 21.9931 24.9764 21.9931ZM24.113 22.1964C23.9398 22.1964 23.7993 22.323 23.7993 22.4789C23.7993 22.6348 23.9398 22.7614 24.113 22.7614C24.2862 22.7614 24.4268 22.6348 24.4268 22.4789C24.4293 22.323 24.2887 22.1964 24.113 22.1964ZM16.6913 7.52184C16.6913 7.75007 16.8971 7.93536 17.1506 7.93536C17.4041 7.93536 17.6099 7.75007 17.6099 7.52184C17.6099 7.29361 17.4041 7.10831 17.1506 7.10831C16.8971 7.10831 16.6913 7.29361 16.6913 7.52184ZM17.7279 7.56477C17.7279 7.79075 17.9312 7.97604 18.1847 7.97604C18.4357 7.97604 18.6415 7.79301 18.6415 7.56477C18.6415 7.3388 18.4382 7.1535 18.1847 7.1535C17.9337 7.1535 17.7279 7.33654 17.7279 7.56477ZM19.1535 7.48117C18.9025 7.48117 18.6992 7.6642 18.6992 7.89017C18.6992 7.99412 18.7444 8.08677 18.8172 8.15682C18.762 8.13648 18.7042 8.12518 18.6415 8.12518C18.393 8.12518 18.1922 8.30596 18.1922 8.52967C18.1922 8.75338 18.393 8.93416 18.6415 8.93416C18.89 8.93416 19.0908 8.75338 19.0908 8.52967C19.0908 8.42798 19.0456 8.3376 18.9753 8.26529C19.0305 8.28563 19.0908 8.29918 19.156 8.29918C19.407 8.29918 19.6103 8.11615 19.6103 7.89017C19.6103 7.80656 19.5752 7.73199 19.5275 7.66872C19.5852 7.69358 19.648 7.70939 19.7182 7.70939C19.9642 7.70939 20.165 7.52862 20.165 7.30716C20.165 7.08571 19.9642 6.90493 19.7182 6.90493C19.4723 6.90493 19.2715 7.08571 19.2715 7.30716C19.2715 7.38851 19.3066 7.46082 19.3518 7.52636C19.289 7.49698 19.2263 7.48117 19.1535 7.48117ZM24.5723 17.5279C24.3816 17.5279 24.226 17.668 24.226 17.8397C24.226 18.0114 24.3816 18.1515 24.5723 18.1515C24.7631 18.1515 24.9187 18.0114 24.9187 17.8397C24.9187 17.668 24.7656 17.5279 24.5723 17.5279ZM25.3077 18.7007C25.3077 18.5357 25.1596 18.4024 24.9764 18.4024C24.7932 18.4024 24.6451 18.5357 24.6451 18.7007C24.6451 18.8656 24.7932 18.9989 24.9764 18.9989C25.1596 18.9989 25.3077 18.8679 25.3077 18.7007ZM25.6942 19.5639C25.6942 19.4057 25.5512 19.2791 25.378 19.2791C25.2023 19.2791 25.0617 19.408 25.0617 19.5639C25.0617 19.7221 25.2048 19.8486 25.378 19.8486C25.5537 19.8486 25.6942 19.7198 25.6942 19.5639ZM25.629 20.7367C25.7946 20.7367 25.9302 20.6146 25.9302 20.4655C25.9302 20.3141 25.7946 20.1943 25.629 20.1943C25.4633 20.1943 25.3278 20.3164 25.3278 20.4655C25.3253 20.6146 25.4608 20.7367 25.629 20.7367ZM17.1657 8.40087C17.1657 8.18167 16.9674 8.00316 16.724 8.00316C16.4805 8.00316 16.2822 8.18167 16.2822 8.40087C16.2822 8.62006 16.4805 8.79858 16.724 8.79858C16.9674 8.80084 17.1657 8.62232 17.1657 8.40087ZM17.6928 7.91503C17.4468 7.91503 17.246 8.0958 17.246 8.31726C17.246 8.53871 17.4443 8.71723 17.6928 8.71723C17.9412 8.71723 18.1395 8.53645 18.1395 8.31726C18.1395 8.0958 17.9387 7.91503 17.6928 7.91503ZM23.8771 18.6622C23.8771 18.8317 24.0302 18.9696 24.2184 18.9696C24.4067 18.9696 24.5598 18.8317 24.5598 18.6622C24.5598 18.4928 24.4067 18.3549 24.2184 18.3549C24.0302 18.3549 23.8771 18.4928 23.8771 18.6622ZM24.2711 19.4757C24.2711 19.6362 24.4167 19.7672 24.5949 19.7672C24.7731 19.7672 24.9187 19.6362 24.9187 19.4757C24.9187 19.3153 24.7731 19.1842 24.5949 19.1842C24.4167 19.1842 24.2711 19.3153 24.2711 19.4757ZM25.2525 20.3005C25.2525 20.1469 25.1145 20.0226 24.9438 20.0226C24.7731 20.0226 24.6351 20.1469 24.6351 20.3005C24.6351 20.4542 24.7731 20.5785 24.9438 20.5785C25.1145 20.5785 25.2525 20.4542 25.2525 20.3005ZM25.2349 20.9355C25.0743 20.9355 24.9438 21.053 24.9438 21.1976C24.9438 21.3423 25.0743 21.4598 25.2349 21.4598C25.3956 21.4598 25.5261 21.3423 25.5261 21.1976C25.5286 21.053 25.3981 20.9355 25.2349 20.9355ZM17.8082 20.3638C17.9814 20.3638 18.122 20.2373 18.122 20.0813C18.122 19.9254 17.9814 19.7989 17.8082 19.7989C17.635 19.7989 17.4945 19.9254 17.4945 20.0813C17.4945 20.2373 17.635 20.3638 17.8082 20.3638ZM17.0176 20.4406C17.2134 20.4406 17.3715 20.2983 17.3715 20.122C17.3715 19.9458 17.2134 19.8034 17.0176 19.8034C16.8218 19.8034 16.6637 19.9458 16.6637 20.122C16.6637 20.296 16.8218 20.4406 17.0176 20.4406ZM17.2887 9.50361C17.5246 9.50361 17.7154 9.33187 17.7154 9.11946C17.7154 8.90705 17.5246 8.73531 17.2887 8.73531C17.0528 8.73531 16.862 8.90705 16.862 9.11946C16.862 9.33187 17.0528 9.50361 17.2887 9.50361ZM18.6365 9.22114C18.6365 9.00421 18.4407 8.82796 18.1998 8.82796C17.9588 8.82796 17.763 9.00421 17.763 9.22114C17.763 9.43808 17.9588 9.61433 18.1998 9.61433C18.4407 9.61433 18.6365 9.44034 18.6365 9.22114ZM23.4881 18.3685C23.2948 18.3685 23.1392 18.5086 23.1392 18.6826C23.1392 18.8566 23.2948 18.9967 23.4881 18.9967C23.6813 18.9967 23.8369 18.8566 23.8369 18.6826C23.8369 18.5086 23.6813 18.3685 23.4881 18.3685ZM23.5132 19.4464C23.5132 19.6113 23.6612 19.7446 23.8445 19.7446C24.0277 19.7446 24.1758 19.6113 24.1758 19.4464C24.1758 19.2814 24.0277 19.1481 23.8445 19.1481C23.6612 19.1503 23.5132 19.2837 23.5132 19.4464ZM24.5096 20.2147C24.5096 20.0587 24.369 19.9322 24.1958 19.9322C24.0227 19.9322 23.8821 20.0587 23.8821 20.2147C23.8821 20.3706 24.0227 20.4971 24.1958 20.4971C24.369 20.4949 24.5096 20.3683 24.5096 20.2147ZM24.6376 21.2587C24.8007 21.2587 24.9337 21.1389 24.9337 20.9943C24.9337 20.8474 24.8007 20.7276 24.6376 20.7276C24.4744 20.7276 24.3414 20.8474 24.3414 20.9943C24.3414 21.1412 24.4744 21.2587 24.6376 21.2587ZM24.9814 21.7445C24.9814 21.6067 24.8584 21.4959 24.7053 21.4959C24.5522 21.4959 24.4293 21.6067 24.4293 21.7445C24.4293 21.8823 24.5522 21.9931 24.7053 21.9931C24.8584 21.9931 24.9814 21.8823 24.9814 21.7445ZM17.6401 19.478C17.6401 19.313 17.492 19.1797 17.3088 19.1797C17.1255 19.1797 16.9775 19.313 16.9775 19.478C16.9775 19.643 17.1255 19.7763 17.3088 19.7763C17.492 19.7763 17.6401 19.643 17.6401 19.478ZM12.786 19.9006C13.0144 19.9006 13.2001 19.7333 13.2001 19.5277C13.2001 19.3221 13.0144 19.1549 12.786 19.1549C12.5576 19.1549 12.3718 19.3221 12.3718 19.5277C12.3693 19.7333 12.5551 19.9006 12.786 19.9006ZM12.663 18.9289C12.663 18.721 12.4773 18.5538 12.2464 18.5538C12.0154 18.5538 11.8297 18.721 11.8297 18.9289C11.8297 19.1368 12.0154 19.304 12.2464 19.304C12.4773 19.304 12.663 19.1368 12.663 18.9289ZM16.4981 9.98719C16.4981 10.1838 16.6738 10.342 16.8921 10.342C17.1105 10.342 17.2862 10.1838 17.2862 9.98719C17.2862 9.7906 17.1105 9.63241 16.8921 9.63241C16.6763 9.63241 16.4981 9.7906 16.4981 9.98719ZM17.3439 9.94651C17.3439 10.1499 17.5271 10.3171 17.7555 10.3171C17.9814 10.3171 18.1671 10.1521 18.1671 9.94651C18.1671 9.74088 17.9839 9.57592 17.7555 9.57592C17.5296 9.57818 17.3439 9.74314 17.3439 9.94651ZM22.7803 19.478C22.7803 19.6452 22.9309 19.7831 23.1191 19.7831C23.3048 19.7831 23.4579 19.6475 23.4579 19.478C23.4579 19.3108 23.3073 19.1729 23.1191 19.1729C22.9334 19.1729 22.7803 19.3108 22.7803 19.478ZM23.7692 20.1989C23.7692 20.0407 23.6261 19.9119 23.4504 19.9119C23.2747 19.9119 23.1317 20.0407 23.1317 20.1989C23.1317 20.357 23.2747 20.4858 23.4504 20.4858C23.6261 20.4858 23.7692 20.357 23.7692 20.1989ZM23.9775 20.6259C23.8118 20.6259 23.6788 20.7457 23.6788 20.8948C23.6788 21.044 23.8118 21.1637 23.9775 21.1637C24.1431 21.1637 24.2762 21.044 24.2762 20.8948C24.2762 20.7457 24.1431 20.6259 23.9775 20.6259ZM24.0703 21.3038C23.9172 21.3038 23.7918 21.4168 23.7918 21.5547C23.7918 21.6925 23.9172 21.8055 24.0703 21.8055C24.2235 21.8055 24.3489 21.6925 24.3489 21.5547C24.3489 21.4168 24.226 21.3038 24.0703 21.3038ZM18.4407 19.6317C18.4407 19.4938 18.3177 19.3831 18.1646 19.3831C18.0115 19.3831 17.886 19.4938 17.886 19.6317C17.886 19.7695 18.009 19.8802 18.1646 19.8802C18.3152 19.8825 18.4407 19.7695 18.4407 19.6317ZM17.5121 19.0419C17.5121 19.1888 17.6451 19.3085 17.8082 19.3085C17.9714 19.3085 18.1044 19.1888 18.1044 19.0419C18.1044 18.895 17.9714 18.7752 17.8082 18.7752C17.6451 18.7752 17.5121 18.8927 17.5121 19.0419ZM16.7516 19.3831C16.9247 19.3831 17.0653 19.2565 17.0653 19.0984C17.0653 18.9424 16.9247 18.8159 16.7516 18.8159C16.5784 18.8159 16.4353 18.9424 16.4353 19.0984C16.4353 19.2543 16.5759 19.3831 16.7516 19.3831ZM15.9484 19.3876C16.1316 19.3876 16.2822 19.252 16.2822 19.0871C16.2822 18.9221 16.1316 18.7865 15.9484 18.7865C15.7652 18.7865 15.6146 18.9221 15.6146 19.0871C15.6146 19.252 15.7627 19.3876 15.9484 19.3876ZM13.554 19.3153C13.7523 19.3153 13.9129 19.1707 13.9129 18.9922C13.9129 18.8136 13.7523 18.669 13.554 18.669C13.3557 18.669 13.1951 18.8136 13.1951 18.9922C13.1951 19.1707 13.3557 19.3153 13.554 19.3153ZM13.3833 18.4679C13.3833 18.2894 13.2227 18.147 13.0269 18.147C12.8286 18.147 12.6705 18.2916 12.6705 18.4679C12.6705 18.6442 12.8312 18.7888 13.0269 18.7888C13.2227 18.791 13.3833 18.6464 13.3833 18.4679ZM14.9696 14.4479C14.9696 14.2807 14.819 14.1428 14.6332 14.1428C14.4475 14.1428 14.2944 14.2784 14.2944 14.4479C14.2944 14.6151 14.445 14.7507 14.6332 14.7507C14.8165 14.7529 14.9696 14.6173 14.9696 14.4479ZM16.9624 11.108C17.1607 11.108 17.3238 10.9634 17.3238 10.7826C17.3238 10.6041 17.1632 10.4572 16.9624 10.4572C16.7641 10.4572 16.601 10.6018 16.601 10.7826C16.601 10.9634 16.7641 11.108 16.9624 11.108ZM17.7555 10.4233C17.5447 10.4233 17.3715 10.577 17.3715 10.7691C17.3715 10.9611 17.5422 11.1148 17.7555 11.1148C17.9689 11.1148 18.1395 10.9611 18.1395 10.7691C18.1395 10.577 17.9663 10.4233 17.7555 10.4233ZM22.5117 19.4509C22.3235 19.4509 22.1704 19.5887 22.1704 19.7582C22.1704 19.9277 22.3235 20.0655 22.5117 20.0655C22.7 20.0655 22.8531 19.9277 22.8531 19.7582C22.8531 19.5887 22.7 19.4509 22.5117 19.4509ZM22.8154 20.7163C22.9936 20.7163 23.1367 20.5875 23.1367 20.4271C23.1367 20.2666 22.9936 20.1378 22.8154 20.1378C22.6372 20.1378 22.4942 20.2666 22.4942 20.4271C22.4942 20.5875 22.6397 20.7163 22.8154 20.7163ZM23.6085 21.0485C23.6085 20.8994 23.473 20.7773 23.3073 20.7773C23.1417 20.7773 23.0062 20.8994 23.0062 21.0485C23.0062 21.1976 23.1417 21.3197 23.3073 21.3197C23.4755 21.3174 23.6085 21.1976 23.6085 21.0485ZM23.4504 21.5547C23.2973 21.5547 23.1718 21.6677 23.1718 21.8055C23.1718 21.9456 23.2973 22.0563 23.4504 22.0563C23.606 22.0563 23.729 21.9433 23.729 21.8055C23.729 21.6677 23.606 21.5547 23.4504 21.5547ZM17.3514 18.3481C17.1933 18.3481 17.0628 18.4634 17.0628 18.608C17.0628 18.7504 17.1908 18.8679 17.3514 18.8679C17.5121 18.8679 17.6401 18.7526 17.6401 18.608C17.6401 18.4634 17.5121 18.3481 17.3514 18.3481ZM16.6185 18.7458C16.7842 18.7458 16.9172 18.6261 16.9172 18.4769C16.9172 18.3278 16.7842 18.208 16.6185 18.208C16.4529 18.208 16.3199 18.3278 16.3199 18.4769C16.3199 18.6261 16.4529 18.7458 16.6185 18.7458ZM15.8681 18.7458C16.0388 18.7458 16.1768 18.6216 16.1768 18.4679C16.1768 18.3142 16.0388 18.19 15.8681 18.19C15.6974 18.19 15.5594 18.3142 15.5594 18.4679C15.5594 18.6238 15.6974 18.7458 15.8681 18.7458ZM15.1176 18.7526C15.2883 18.7526 15.4289 18.6283 15.4289 18.4724C15.4289 18.3165 15.2883 18.1922 15.1176 18.1922C14.947 18.1922 14.8064 18.3188 14.8064 18.4724C14.8064 18.6261 14.947 18.7526 15.1176 18.7526ZM14.3697 18.7323C14.5404 18.7323 14.6809 18.608 14.6809 18.4521C14.6809 18.2984 14.5404 18.1719 14.3697 18.1719C14.199 18.1719 14.0585 18.2962 14.0585 18.4521C14.0585 18.608 14.199 18.7323 14.3697 18.7323ZM14.1313 18.0318C14.1313 17.8759 13.9907 17.7516 13.82 17.7516C13.6494 17.7516 13.5088 17.8759 13.5088 18.0318C13.5088 18.1854 13.6494 18.312 13.82 18.312C13.9907 18.312 14.1313 18.1877 14.1313 18.0318ZM15.0599 15.1845C15.2256 15.1845 15.3611 15.0625 15.3611 14.9134C15.3611 14.7642 15.2256 14.6422 15.0599 14.6422C14.8943 14.6422 14.7587 14.7642 14.7587 14.9134C14.7587 15.0625 14.8918 15.1845 15.0599 15.1845ZM15.0624 14.2942C15.0624 14.4411 15.1954 14.5609 15.3586 14.5609C15.5217 14.5609 15.6573 14.4411 15.6573 14.2942C15.6573 14.1473 15.5242 14.0276 15.3586 14.0276C15.1954 14.0276 15.0624 14.1473 15.0624 14.2942ZM15.3636 13.6773C15.3636 13.8242 15.4966 13.944 15.6598 13.944C15.8229 13.944 15.9559 13.8242 15.9559 13.6773C15.9559 13.5304 15.8229 13.4107 15.6598 13.4107C15.4966 13.4107 15.3636 13.5304 15.3636 13.6773ZM15.6598 13.0604C15.6598 13.2095 15.7953 13.3316 15.961 13.3316C16.1266 13.3316 16.2621 13.2095 16.2621 13.0604C16.2621 12.9113 16.1266 12.7892 15.961 12.7892C15.7953 12.7892 15.6598 12.9113 15.6598 13.0604ZM15.9559 12.4435C15.9559 12.5949 16.0915 12.7169 16.2596 12.7169C16.4278 12.7169 16.5633 12.5949 16.5633 12.4435C16.5633 12.2921 16.4278 12.1701 16.2596 12.1701C16.094 12.1701 15.9559 12.2921 15.9559 12.4435ZM16.2948 11.8447C16.2948 11.9983 16.4328 12.1226 16.6035 12.1226C16.7742 12.1226 16.9122 11.9983 16.9122 11.8447C16.9122 11.691 16.7742 11.5667 16.6035 11.5667C16.4328 11.5667 16.2948 11.691 16.2948 11.8447ZM17.5723 11.5374C17.5723 11.3769 17.4292 11.2481 17.251 11.2481C17.0728 11.2481 16.9298 11.3769 16.9298 11.5374C16.9298 11.6978 17.0728 11.8266 17.251 11.8266C17.4292 11.8266 17.5723 11.6978 17.5723 11.5374ZM18.3102 11.7091C18.3102 11.5351 18.1521 11.3927 17.9588 11.3927C17.7656 11.3927 17.6074 11.5351 17.6074 11.7091C17.6074 11.8831 17.7656 12.0255 17.9588 12.0255C18.1521 12.0255 18.3102 11.8854 18.3102 11.7091ZM22.5218 21.4733C22.5218 21.6225 22.6573 21.7445 22.8229 21.7445C22.9886 21.7445 23.1241 21.6225 23.1241 21.4733C23.1241 21.3242 22.9886 21.2022 22.8229 21.2022C22.6573 21.2022 22.5218 21.3219 22.5218 21.4733ZM18.6566 19.6158C18.7946 19.6158 18.905 19.5164 18.905 19.3921C18.905 19.2678 18.7946 19.1684 18.6566 19.1684C18.5185 19.1684 18.4081 19.2678 18.4081 19.3921C18.4081 19.5164 18.5185 19.6158 18.6566 19.6158ZM18.3604 18.608C18.2274 18.608 18.1194 18.7052 18.1194 18.8249C18.1194 18.9447 18.2274 19.0419 18.3604 19.0419C18.4934 19.0419 18.6013 18.9447 18.6013 18.8249C18.6013 18.7052 18.4934 18.608 18.3604 18.608ZM17.8986 18.147C17.7706 18.147 17.6652 18.2397 17.6652 18.3572C17.6652 18.4747 17.7681 18.5673 17.8986 18.5673C18.0266 18.5673 18.132 18.4747 18.132 18.3572C18.132 18.2397 18.0266 18.147 17.8986 18.147ZM17.3088 18.2284C17.4317 18.2284 17.5346 18.138 17.5346 18.025C17.5346 17.9143 17.4343 17.8216 17.3088 17.8216C17.1858 17.8216 17.0829 17.912 17.0829 18.025C17.0829 18.138 17.1833 18.2284 17.3088 18.2284ZM16.6361 18.0657C16.7591 18.0657 16.8595 17.9753 16.8595 17.8646C16.8595 17.7538 16.7591 17.6634 16.6361 17.6634C16.5131 17.6634 16.4127 17.7538 16.4127 17.8646C16.4127 17.9753 16.5131 18.0657 16.6361 18.0657ZM15.715 17.851C15.715 17.9617 15.8154 18.0521 15.9384 18.0521C16.0614 18.0521 16.1617 17.9617 16.1617 17.851C16.1617 17.7403 16.0614 17.6499 15.9384 17.6499C15.8154 17.6499 15.715 17.7403 15.715 17.851ZM15.2406 17.6521C15.1176 17.6521 15.0172 17.7425 15.0172 17.8533C15.0172 17.964 15.1176 18.0544 15.2406 18.0544C15.3636 18.0544 15.464 17.964 15.464 17.8533C15.464 17.7425 15.3636 17.6521 15.2406 17.6521ZM14.8566 17.625C14.8566 17.5143 14.7562 17.4217 14.6307 17.4217C14.5077 17.4217 14.4048 17.512 14.4048 17.625C14.4048 17.738 14.5052 17.8284 14.6307 17.8284C14.7562 17.8261 14.8566 17.7358 14.8566 17.625ZM14.44 17.0285C14.44 17.1415 14.5404 17.2318 14.6659 17.2318C14.7914 17.2318 14.8918 17.1415 14.8918 17.0285C14.8918 16.9155 14.7914 16.8251 14.6659 16.8251C14.5404 16.8251 14.44 16.9155 14.44 17.0285ZM15.1779 16.4545C15.1779 16.3415 15.075 16.2489 14.9495 16.2489C14.824 16.2489 14.7211 16.3415 14.7211 16.4545C14.7211 16.5675 14.824 16.6601 14.9495 16.6601C15.075 16.6601 15.1779 16.5675 15.1779 16.4545ZM15.2331 15.6681C15.1026 15.6681 14.9972 15.763 14.9972 15.8805C14.9972 15.998 15.1026 16.0929 15.2331 16.0929C15.3636 16.0929 15.469 15.998 15.469 15.8805C15.469 15.763 15.3636 15.6681 15.2331 15.6681ZM15.7602 15.3066C15.7602 15.1868 15.6522 15.0874 15.5167 15.0874C15.3837 15.0874 15.2733 15.1845 15.2733 15.3066C15.2733 15.4263 15.3812 15.5258 15.5167 15.5258C15.6497 15.5258 15.7602 15.4286 15.7602 15.3066ZM15.8003 14.5089C15.6623 14.5089 15.5518 14.6106 15.5518 14.7326C15.5518 14.8569 15.6648 14.9563 15.8003 14.9563C15.9384 14.9563 16.0488 14.8569 16.0488 14.7326C16.0513 14.6083 15.9384 14.5089 15.8003 14.5089ZM16.0839 13.9281C15.9409 13.9281 15.8279 14.0321 15.8279 14.1586C15.8279 14.2874 15.9434 14.3891 16.0839 14.3891C16.227 14.3891 16.3399 14.2852 16.3399 14.1586C16.3425 14.0321 16.227 13.9281 16.0839 13.9281ZM16.6336 13.5869C16.6336 13.4559 16.5156 13.3497 16.3701 13.3497C16.2245 13.3497 16.1065 13.4559 16.1065 13.5869C16.1065 13.718 16.2245 13.8242 16.3701 13.8242C16.5156 13.8242 16.6336 13.718 16.6336 13.5869ZM16.6537 12.7666C16.5031 12.7666 16.3826 12.8751 16.3826 13.0107C16.3826 13.1463 16.5031 13.2547 16.6537 13.2547C16.8043 13.2547 16.9247 13.1463 16.9247 13.0107C16.9247 12.8751 16.8018 12.7666 16.6537 12.7666ZM17.2561 12.4593C17.2561 12.3215 17.1306 12.2085 16.9775 12.2085C16.8244 12.2085 16.6989 12.3215 16.6989 12.4593C16.6989 12.5972 16.8244 12.7101 16.9775 12.7101C17.1306 12.7101 17.2561 12.5994 17.2561 12.4593ZM17.9136 12.4164C17.9136 12.2718 17.7831 12.1543 17.6225 12.1543C17.4619 12.1543 17.3313 12.2718 17.3313 12.4164C17.3313 12.561 17.4619 12.6785 17.6225 12.6785C17.7831 12.6785 17.9136 12.561 17.9136 12.4164ZM22.8706 22.0541C22.8706 22.2281 22.715 22.3682 22.5218 22.3682C22.3285 22.3682 22.1729 22.2281 22.1729 22.0541C22.1729 22.0111 22.1829 21.9705 22.2005 21.932C22.1428 21.9637 22.08 21.9863 22.0072 21.9863C21.7914 21.9863 21.6182 21.8281 21.6182 21.636C21.6182 21.575 21.6408 21.5208 21.6709 21.4688C21.6634 21.4688 21.6559 21.4733 21.6458 21.4733C21.4174 21.4733 21.2317 21.3061 21.2317 21.1005C21.2317 21.0259 21.2618 20.9581 21.3045 20.8994C21.1012 20.8655 20.943 20.7118 20.943 20.5175C20.943 20.4497 20.9682 20.3887 21.0008 20.3322C20.8025 20.2847 20.6544 20.1288 20.6544 19.9345C20.6544 19.8712 20.672 19.8124 20.6996 19.7605C20.5114 19.7017 20.3733 19.5435 20.3733 19.3537C20.3733 19.2927 20.3884 19.2362 20.4135 19.182C20.2328 19.1164 20.1022 18.9583 20.1022 18.7707C20.1022 18.712 20.1173 18.6577 20.1399 18.6057C19.9592 18.538 19.8312 18.3775 19.8312 18.19C19.8312 18.1335 19.8462 18.0792 19.8663 18.0295C19.6856 17.9572 19.5576 17.7968 19.5576 17.607C19.5576 17.5505 19.5727 17.4985 19.5927 17.451C19.412 17.3765 19.2865 17.216 19.2865 17.0262C19.2865 16.9697 19.3016 16.92 19.3217 16.8703C19.1435 16.7935 19.018 16.633 19.018 16.4432C19.018 16.3844 19.033 16.328 19.0556 16.276C18.885 16.1991 18.7645 16.0455 18.7645 15.8625C18.7645 15.7947 18.7821 15.7336 18.8097 15.6749C18.644 15.6026 18.5286 15.4557 18.5286 15.2794C18.5286 15.2026 18.5562 15.1326 18.5963 15.0693C18.4307 15.0105 18.3102 14.8659 18.3102 14.6964C18.3102 14.6061 18.3504 14.527 18.4056 14.4592C18.2274 14.423 18.0918 14.2852 18.0918 14.1134C18.0918 14.0072 18.1445 13.9146 18.2249 13.849C18.0316 13.8468 17.876 13.7067 17.876 13.5327C17.876 13.3564 18.0341 13.2141 18.2299 13.2141C18.3579 13.2141 18.4658 13.2796 18.5286 13.3722C18.5486 13.3248 18.5762 13.2841 18.6139 13.248C18.4533 13.2344 18.3227 13.1395 18.27 13.0084C18.2399 13.1372 18.1194 13.2344 17.9689 13.2344C17.7957 13.2344 17.6551 13.1079 17.6551 12.9519C17.6551 12.796 17.7957 12.6695 17.9689 12.6695C18.0969 12.6695 18.2048 12.7395 18.255 12.8367C18.27 12.7395 18.3253 12.6582 18.4081 12.5994C18.3955 12.6017 18.3855 12.6062 18.3704 12.6062C18.1596 12.6062 17.9889 12.4525 17.9889 12.2627C17.9889 12.0729 18.1596 11.9192 18.3704 11.9192C18.4106 11.9192 18.4508 11.9305 18.4859 11.9396C18.4457 11.8808 18.4181 11.8153 18.4181 11.743C18.4181 11.6368 18.4658 11.5419 18.5411 11.4718C18.511 11.4786 18.4809 11.4899 18.4457 11.4899C18.2198 11.4899 18.0391 11.3249 18.0391 11.1238C18.0391 10.9205 18.2224 10.7578 18.4457 10.7578C18.5361 10.7578 18.6164 10.7894 18.6867 10.8368C18.6867 10.8323 18.6842 10.8301 18.6842 10.8278C18.6842 10.6064 18.8824 10.4278 19.1284 10.4278C19.146 10.4278 19.161 10.4346 19.1761 10.4369C19.1485 10.3849 19.1309 10.3261 19.1309 10.2651C19.1309 10.0392 19.3342 9.85612 19.5852 9.85612C19.6003 9.85612 19.6128 9.8629 19.6279 9.8629C19.6078 9.81545 19.5953 9.76573 19.5953 9.71376C19.5953 9.48779 19.7985 9.30475 20.0495 9.30475C20.0746 9.30475 20.0972 9.31379 20.1223 9.31831C20.1148 9.29119 20.1022 9.26408 20.1022 9.2347C20.1022 9.01099 20.303 8.83022 20.5515 8.83022C20.5892 8.83022 20.6218 8.84151 20.6569 8.84829C20.6544 8.83473 20.6494 8.82569 20.6494 8.81214C20.6494 8.59746 20.8427 8.42573 21.0786 8.42573C21.317 8.42573 21.5078 8.59972 21.5078 8.81214C21.5078 9.02455 21.3145 9.19854 21.0786 9.19854C21.046 9.19854 21.0183 9.18725 20.9882 9.18273C20.9907 9.20081 20.9983 9.21437 20.9983 9.23245C20.9983 9.45616 20.7975 9.63468 20.549 9.63468C20.5264 9.63468 20.5038 9.62563 20.4812 9.62337C20.4888 9.65275 20.5013 9.68212 20.5013 9.71376C20.5013 9.93973 20.298 10.1228 20.047 10.1228C20.032 10.1228 20.0194 10.116 20.0044 10.116C20.0244 10.1612 20.037 10.2109 20.037 10.2651C20.037 10.299 20.0244 10.3284 20.0169 10.36C20.0872 10.2154 20.2478 10.1137 20.4361 10.1137C20.4662 10.1137 20.4913 10.125 20.5189 10.1296C20.5189 10.1183 20.5114 10.107 20.5114 10.0957C20.5114 9.8742 20.7096 9.69569 20.9556 9.69569C21.0008 9.69569 21.0409 9.70699 21.0811 9.71828C21.0836 9.51039 21.2693 9.34091 21.5028 9.34091C21.7362 9.34091 21.9244 9.51039 21.9244 9.72054C21.9244 9.93069 21.7362 10.1002 21.5028 10.1002C21.4651 10.1002 21.4325 10.0889 21.3973 10.0821C21.3973 10.0866 21.3998 10.0911 21.3998 10.0957C21.3998 10.3171 21.2016 10.4956 20.9556 10.4956C20.9305 10.4956 20.9079 10.4866 20.8828 10.4821C20.8853 10.4979 20.8929 10.5092 20.8929 10.525C20.8929 10.7532 20.687 10.9363 20.4361 10.9363C20.421 10.9363 20.4059 10.9295 20.3909 10.9272C20.3984 10.9589 20.4135 10.9905 20.4135 11.0244C20.4135 11.1871 20.3081 11.3249 20.155 11.3927C20.2026 11.3792 20.2503 11.3656 20.303 11.3656C20.3231 11.3656 20.3407 11.3747 20.3608 11.3769C20.3583 11.3634 20.3507 11.3498 20.3507 11.3362C20.3507 11.108 20.5565 10.9205 20.8125 10.9205C20.8502 10.9205 20.8828 10.9318 20.918 10.9408C20.9255 10.7284 21.1162 10.5566 21.3547 10.5566C21.4124 10.5566 21.4676 10.5679 21.5178 10.586C21.5379 10.3985 21.7086 10.2493 21.9219 10.2493C22.1503 10.2493 22.336 10.4165 22.336 10.6222C22.336 10.8278 22.1503 10.995 21.9219 10.995C21.8742 10.995 21.8315 10.9837 21.7889 10.9702C21.7788 11.1803 21.5881 11.3475 21.3547 11.3475C21.3245 11.3475 21.2995 11.3385 21.2718 11.3317C21.2718 11.334 21.2718 11.334 21.2718 11.3362C21.2718 11.5645 21.066 11.752 20.81 11.752C20.7925 11.752 20.7774 11.7452 20.7598 11.743C20.7623 11.7588 20.7699 11.7746 20.7699 11.7904C20.7699 11.9464 20.672 12.0752 20.5339 12.1497C20.5716 12.1407 20.6092 12.1294 20.6519 12.1294C20.682 12.1294 20.7096 12.1407 20.7372 12.1452C20.7423 11.9238 20.9405 11.7453 21.1865 11.7453C21.2392 11.7453 21.2869 11.7565 21.3346 11.7724C21.3597 11.5803 21.5329 11.4289 21.7537 11.4289C21.8265 11.4289 21.8918 11.4492 21.952 11.4786C21.9796 11.3023 22.1428 11.1645 22.3461 11.1645C22.5694 11.1645 22.7502 11.3272 22.7502 11.5283C22.7502 11.7294 22.5694 11.8921 22.3461 11.8921C22.2833 11.8921 22.2256 11.8763 22.1729 11.8537C22.1478 12.0458 21.9746 12.1972 21.7537 12.1972C21.7111 12.1972 21.6709 12.1859 21.6333 12.1746C21.6182 12.3847 21.4275 12.5542 21.1865 12.5542C21.1639 12.5542 21.1464 12.5452 21.1263 12.5429C21.1263 12.5474 21.1288 12.5497 21.1288 12.552C21.1288 12.7169 21.0209 12.857 20.8703 12.9271C20.9154 12.9135 20.9581 12.9022 21.0083 12.9022C21.0535 12.9022 21.0962 12.9135 21.1363 12.9248C21.1564 12.7237 21.3396 12.5633 21.568 12.5633C21.6358 12.5633 21.6985 12.5791 21.7562 12.6039C21.7914 12.4277 21.9545 12.2921 22.1603 12.2921C22.2482 12.2921 22.326 12.3215 22.3938 12.3644C22.4289 12.1995 22.582 12.0729 22.7753 12.0729C22.9936 12.0729 23.1718 12.2333 23.1718 12.4299C23.1718 12.6265 22.9936 12.787 22.7753 12.787C22.6974 12.787 22.6272 12.7599 22.5644 12.726C22.5343 12.9067 22.3687 13.0468 22.1578 13.0468C22.1001 13.0468 22.0449 13.0355 21.9947 13.0152C21.9621 13.205 21.7889 13.3542 21.568 13.3542C21.5304 13.3542 21.5002 13.3429 21.4651 13.3361C21.4526 13.5553 21.2543 13.7315 21.0083 13.7315C20.9857 13.7315 20.9656 13.7225 20.9456 13.7202C20.9405 13.8287 20.8929 13.9259 20.8176 13.9982C20.8577 14.0004 20.8954 14.0095 20.9305 14.0185C20.9656 13.8287 21.1413 13.6796 21.3622 13.6796C21.4224 13.6796 21.4802 13.6909 21.5329 13.7112C21.5655 13.5304 21.7337 13.3881 21.9445 13.3881C22.0273 13.3881 22.1026 13.4152 22.1679 13.4536C22.208 13.2886 22.3636 13.1621 22.5594 13.1621C22.6623 13.1621 22.7552 13.2005 22.828 13.257C22.8681 13.1033 23.0162 12.9858 23.1994 12.9858C23.4128 12.9858 23.5885 13.1418 23.5885 13.3361C23.5885 13.5304 23.4153 13.6863 23.1994 13.6863C23.104 13.6863 23.0212 13.6524 22.9535 13.6005C22.9158 13.7677 22.7602 13.8988 22.5619 13.8988C22.4866 13.8988 22.4189 13.8739 22.3586 13.8423C22.321 14.0208 22.1553 14.1586 21.947 14.1586C21.8943 14.1586 21.8441 14.1473 21.7989 14.1315C21.7713 14.3304 21.5906 14.4863 21.3647 14.4863C21.3296 14.4863 21.2969 14.475 21.2618 14.4682C21.2493 14.5699 21.2066 14.6625 21.1313 14.7303C21.194 14.7303 21.2543 14.7416 21.307 14.762C21.3522 14.5925 21.5153 14.4637 21.7186 14.4637C21.7964 14.4637 21.8667 14.4863 21.9294 14.5202C21.9671 14.3484 22.1277 14.2196 22.326 14.2196C22.4264 14.2196 22.5142 14.2558 22.587 14.31C22.6297 14.1564 22.7803 14.0389 22.9635 14.0389C23.084 14.0389 23.1894 14.0908 23.2622 14.1677C23.3023 14.0185 23.4454 13.9033 23.6236 13.9033C23.8344 13.9033 24.0026 14.0569 24.0026 14.2445C24.0026 14.4343 23.8319 14.5857 23.6236 14.5857C23.5106 14.5857 23.4128 14.5383 23.3425 14.4682C23.3023 14.6286 23.1517 14.7507 22.9635 14.7507C22.8706 14.7507 22.7878 14.7168 22.72 14.6693C22.6774 14.8365 22.5218 14.9608 22.3235 14.9608C22.2532 14.9608 22.1905 14.9405 22.1327 14.9134C22.0976 15.0964 21.9294 15.2365 21.7161 15.2365C21.6659 15.2365 21.6207 15.2252 21.5755 15.2117C21.5555 15.3224 21.4902 15.415 21.3923 15.4783C21.4149 15.476 21.435 15.467 21.4576 15.467C21.5379 15.467 21.6107 15.4919 21.6759 15.5258C21.7211 15.3631 21.8767 15.241 22.0725 15.241C22.1679 15.241 22.2507 15.2749 22.321 15.3224C22.3611 15.1619 22.5142 15.0422 22.705 15.0422C22.8229 15.0422 22.9284 15.0919 23.0011 15.1642C23.0463 15.0173 23.1894 14.9066 23.3676 14.9066C23.5106 14.9066 23.6286 14.9789 23.6964 15.0828C23.7315 14.9314 23.8746 14.8162 24.0528 14.8162C24.2586 14.8162 24.4242 14.9653 24.4242 15.1506C24.4242 15.3359 24.2586 15.4851 24.0528 15.4851C23.9172 15.4851 23.8043 15.4173 23.739 15.3201C23.7039 15.4806 23.5558 15.6026 23.3676 15.6026C23.2546 15.6026 23.1568 15.5574 23.0865 15.4896C23.0413 15.6455 22.8932 15.763 22.705 15.763C22.6171 15.763 22.5393 15.7314 22.4716 15.6885C22.4314 15.8579 22.2733 15.989 22.0725 15.989C22.0047 15.989 21.9445 15.9709 21.8868 15.9461C21.8441 16.1291 21.6734 16.2692 21.4601 16.2692C21.4425 16.2692 21.4275 16.2624 21.4099 16.2602C21.43 16.3031 21.4375 16.3483 21.44 16.3957C21.5153 16.2873 21.6408 16.2104 21.7914 16.2104C21.8893 16.2104 21.9746 16.2443 22.0449 16.2941C22.0901 16.1381 22.2381 16.0206 22.4264 16.0206C22.5393 16.0206 22.6422 16.0636 22.715 16.1314C22.7577 15.98 22.9033 15.867 23.084 15.867C23.2245 15.867 23.3425 15.9393 23.4103 16.0387C23.4479 15.8896 23.591 15.7743 23.7692 15.7743C23.9398 15.7743 24.0779 15.8783 24.1231 16.0161C24.1456 15.8557 24.2912 15.7269 24.4769 15.7269C24.6777 15.7269 24.8384 15.8738 24.8384 16.0523C24.8384 16.233 24.6752 16.3777 24.4769 16.3777C24.3163 16.3777 24.1833 16.2805 24.1381 16.1494C24.1155 16.3189 23.9624 16.45 23.7717 16.45C23.6361 16.45 23.5232 16.3822 23.4579 16.285C23.4203 16.4409 23.2722 16.563 23.0865 16.563C22.9786 16.563 22.8832 16.5245 22.8129 16.4613C22.7702 16.6195 22.6196 16.7392 22.4314 16.7392C22.3436 16.7392 22.2658 16.7076 22.2005 16.6647C22.1603 16.8341 21.9997 16.9652 21.7964 16.9652C21.7613 16.9652 21.7312 16.9539 21.6985 16.9471C21.7161 16.9901 21.7286 17.033 21.7286 17.0827C21.7286 17.2138 21.6533 17.3245 21.5429 17.3945C21.563 17.3923 21.5806 17.3832 21.6006 17.3832C21.6559 17.3832 21.7086 17.3945 21.7562 17.4104C21.7437 17.3765 21.7337 17.3426 21.7337 17.3064C21.7337 17.1076 21.9119 16.9494 22.1302 16.9494C22.2457 16.9494 22.3486 16.9946 22.4214 17.0669C22.4615 16.9132 22.6071 16.798 22.7878 16.798C22.9258 16.798 23.0413 16.868 23.1091 16.9652C23.1442 16.8115 23.2873 16.6918 23.468 16.6918C23.6412 16.6918 23.7817 16.8002 23.8219 16.9449C23.8369 16.7799 23.9875 16.6466 24.1783 16.6466C24.3791 16.6466 24.5397 16.7912 24.5397 16.972C24.5397 17.1528 24.3766 17.2974 24.1783 17.2974C24.0101 17.2974 23.8771 17.1934 23.8344 17.0533C23.8194 17.2251 23.6637 17.3606 23.468 17.3606C23.335 17.3606 23.2245 17.2951 23.1593 17.2025C23.1266 17.3629 22.976 17.4872 22.7878 17.4872C22.6774 17.4872 22.582 17.4443 22.5117 17.3787C22.4716 17.5392 22.321 17.6612 22.1302 17.6612C22.0775 17.6612 22.0298 17.6499 21.9821 17.6341C21.9947 17.6702 22.0072 17.7064 22.0072 17.7448C22.0072 17.9482 21.824 18.1109 21.6006 18.1109C21.4977 18.1109 21.4074 18.0747 21.3371 18.0182C21.3195 18.0566 21.2919 18.0905 21.2593 18.1222C21.3823 18.1357 21.4827 18.1967 21.5479 18.2849C21.6031 18.1561 21.7412 18.0657 21.9043 18.0657C21.9796 18.0657 22.0449 18.0905 22.1051 18.1244C22.0926 18.0928 22.0825 18.0589 22.0825 18.0227C22.0825 17.8352 22.2507 17.6838 22.459 17.6838C22.5996 17.6838 22.7175 17.7561 22.7828 17.8578C22.8079 17.6973 22.956 17.5731 23.1392 17.5731C23.3124 17.5731 23.4504 17.6815 23.4881 17.8261C23.4931 17.6522 23.6487 17.5143 23.842 17.5143C24.0377 17.5143 24.1984 17.6589 24.1984 17.8352C24.1984 18.0114 24.0377 18.1561 23.842 18.1561C23.6738 18.1561 23.5408 18.0499 23.5031 17.912C23.4981 18.0905 23.3375 18.2329 23.1392 18.2329C23.0037 18.2329 22.8907 18.1628 22.8255 18.0657C22.8004 18.2329 22.6498 18.3617 22.459 18.3617C22.3862 18.3617 22.321 18.3391 22.2632 18.3052C22.2758 18.3391 22.2858 18.373 22.2858 18.4092C22.2858 18.6012 22.1127 18.7549 21.9018 18.7549C21.7713 18.7549 21.6634 18.6939 21.5931 18.6057C21.5705 18.6645 21.5354 18.7165 21.4877 18.7572C21.6659 18.7572 21.8115 18.8679 21.8566 19.017C21.8893 18.8656 22.0298 18.7504 22.2055 18.7504C22.3009 18.7504 22.3862 18.7843 22.4515 18.8385C22.4414 18.8069 22.4289 18.7752 22.4289 18.7413C22.4289 18.5628 22.5895 18.4204 22.7853 18.4204C22.9836 18.4204 23.1417 18.5651 23.1417 18.7413C23.1417 18.9176 22.9811 19.0622 22.7853 19.0622C22.6924 19.0622 22.6071 19.0283 22.5443 18.9741C22.5569 19.0057 22.5669 19.0396 22.5669 19.0758C22.5669 19.2565 22.4038 19.4034 22.203 19.4034C22.0399 19.4034 21.9043 19.304 21.8592 19.1684C21.8366 19.2791 21.7638 19.3718 21.6533 19.4192C21.6885 19.4079 21.7261 19.3989 21.7638 19.3989C21.9671 19.3989 22.1327 19.5481 22.1327 19.7311C22.1327 19.9141 21.9671 20.0633 21.7638 20.0633C21.686 20.0633 21.6182 20.0361 21.5605 20C21.5504 20.0452 21.5329 20.0881 21.5078 20.1265C21.5956 20.1514 21.6684 20.1988 21.7211 20.2644C21.7638 20.1378 21.8918 20.0429 22.0474 20.0429C22.2381 20.0429 22.3938 20.183 22.3938 20.3548C22.3938 20.5265 22.2381 20.6666 22.0474 20.6666C21.9495 20.6666 21.8642 20.6305 21.8014 20.574C21.7889 20.6305 21.7663 20.6802 21.7311 20.7254C21.8617 20.7525 21.9721 20.8271 22.0248 20.9378C22.0474 20.7977 22.1779 20.6869 22.341 20.6869C22.5192 20.6869 22.6648 20.818 22.6648 20.9784C22.6648 21.1389 22.5192 21.27 22.341 21.27C22.213 21.27 22.1076 21.2022 22.0524 21.1073C22.0474 21.1683 22.0273 21.2202 21.9947 21.27C21.9972 21.27 21.9997 21.2677 22.0047 21.2677C22.2206 21.2677 22.3938 21.4259 22.3938 21.618C22.3938 21.6722 22.3787 21.7219 22.3536 21.7671C22.4038 21.7422 22.459 21.7242 22.5192 21.7242C22.715 21.74 22.8706 21.8801 22.8706 22.0541ZM19.3719 11.1487C19.4045 11.1419 19.4346 11.1306 19.4672 11.1306C19.4823 11.1306 19.4949 11.1374 19.5099 11.1374C19.4999 11.1057 19.4898 11.0741 19.4873 11.0402C19.4572 11.0854 19.4171 11.1193 19.3719 11.1487ZM21.6057 19.4531C21.568 19.4644 21.5279 19.4757 21.4852 19.4757C21.4249 19.4757 21.3697 19.4622 21.3195 19.4396C21.312 19.478 21.302 19.5142 21.2819 19.5458C21.3346 19.5639 21.3823 19.591 21.4249 19.6249C21.4601 19.5503 21.5253 19.4893 21.6057 19.4531ZM21.2091 18.8747C21.2066 18.8747 21.2041 18.8769 21.2016 18.8769C21.1539 18.8769 21.1112 18.8656 21.0685 18.8521C21.061 18.886 21.0585 18.9221 21.0434 18.9515C21.0736 18.9628 21.0962 18.9831 21.1238 18.9989C21.1413 18.9515 21.1714 18.9085 21.2091 18.8747ZM21.3572 17.4668C21.3346 17.4691 21.3145 17.4782 21.2894 17.4782C21.2091 17.4782 21.1388 17.4533 21.0761 17.4194C21.0635 17.4465 21.0409 17.4669 21.0234 17.4917C21.1037 17.5098 21.1815 17.5392 21.2367 17.5911C21.2643 17.5414 21.3045 17.5007 21.3572 17.4668ZM20.6544 12.9858C20.6394 12.9858 20.6293 12.9791 20.6143 12.9791C20.6143 12.9813 20.6168 12.9836 20.6168 12.9881C20.6168 13.0988 20.5666 13.1982 20.4913 13.2751C20.5139 13.2773 20.5339 13.2819 20.5565 13.2864C20.5716 13.1417 20.6645 13.0242 20.7975 12.9587C20.7523 12.9723 20.7071 12.9858 20.6544 12.9858ZM20.3005 12.2153C20.2855 12.2153 20.2729 12.2085 20.2579 12.2085C20.2604 12.2288 20.2704 12.2446 20.2704 12.265C20.2704 12.2921 20.2579 12.3147 20.2528 12.3396C20.293 12.2785 20.3482 12.2311 20.416 12.1949C20.3783 12.2017 20.3407 12.2153 20.3005 12.2153ZM20.0922 11.4153C20.0445 11.4289 19.9993 11.4424 19.9466 11.4424C19.9291 11.4424 19.9165 11.4357 19.9015 11.4334C19.9115 11.4696 19.9266 11.5035 19.9266 11.5441C19.9266 11.5464 19.924 11.5487 19.924 11.5509C19.9667 11.4944 20.0219 11.447 20.0922 11.4153ZM19.5827 10.6719C19.5626 10.6719 19.5476 10.6628 19.5275 10.6628C19.5501 10.7058 19.5601 10.7555 19.5651 10.8052C19.648 10.69 19.7835 10.6086 19.9491 10.6086C19.9667 10.6086 19.9818 10.6154 19.9993 10.6176C19.9918 10.586 19.9793 10.5566 19.9793 10.5227C19.9793 10.4888 19.9918 10.4595 20.0018 10.4278C19.9266 10.5725 19.7684 10.6719 19.5827 10.6719ZM23.2044 22.0925C23.0338 22.0925 22.8957 22.2168 22.8957 22.3704C22.8957 22.5241 23.0338 22.6484 23.2044 22.6484C23.3751 22.6484 23.5132 22.5241 23.5132 22.3704C23.5132 22.2168 23.3751 22.0925 23.2044 22.0925Z" fill="#010202"/>
</svg>
