<svg width="174" height="72" viewBox="0 0 174 72" fill="none" xmlns="http://www.w3.org/2000/svg">
<path d="M49.9253 25.6364H52.8685L59.7889 42.5398H60.0276L66.948 25.6364H69.8912V46H67.5844V30.5284H67.3855L61.0219 46H58.7946L52.431 30.5284H52.2321V46H49.9253V25.6364ZM72.2173 46V30.7273H74.5638V46H72.2173ZM73.4104 28.1818C72.9531 28.1818 72.5586 28.026 72.2272 27.7145C71.9024 27.4029 71.74 27.0284 71.74 26.5909C71.74 26.1534 71.9024 25.7789 72.2272 25.4673C72.5586 25.1558 72.9531 25 73.4104 25C73.8678 25 74.2589 25.1558 74.5837 25.4673C74.9152 25.7789 75.0809 26.1534 75.0809 26.5909C75.0809 27.0284 74.9152 27.4029 74.5837 27.7145C74.2589 28.026 73.8678 28.1818 73.4104 28.1818ZM82.3288 46.3182C81.0561 46.3182 79.9325 45.9967 78.9581 45.3537C77.9837 44.7041 77.2214 43.7893 76.6712 42.6094C76.121 41.4228 75.8459 40.0208 75.8459 38.4034C75.8459 36.7992 76.121 35.4072 76.6712 34.2273C77.2214 33.0473 77.987 32.1359 78.968 31.4929C79.9491 30.8499 81.0826 30.5284 82.3686 30.5284C83.3629 30.5284 84.1484 30.6941 84.7251 31.0256C85.3085 31.3504 85.7526 31.7216 86.0575 32.1392C86.3691 32.5502 86.611 32.8883 86.7834 33.1534H86.9822V25.6364H89.3288V46H87.0618V43.6534H86.7834C86.611 43.9318 86.3658 44.2831 86.0476 44.7074C85.7294 45.125 85.2753 45.4995 84.6854 45.831C84.0954 46.1558 83.3099 46.3182 82.3288 46.3182ZM82.647 44.2102C83.5883 44.2102 84.3838 43.965 85.0334 43.4744C85.683 42.9773 86.1768 42.2912 86.5149 41.4162C86.853 40.5346 87.022 39.517 87.022 38.3636C87.022 37.2235 86.8563 36.2259 86.5249 35.3707C86.1934 34.509 85.7029 33.8395 85.0533 33.3622C84.4036 32.8783 83.6016 32.6364 82.647 32.6364C81.6527 32.6364 80.8241 32.8916 80.1612 33.402C79.505 33.9058 79.0111 34.5919 78.6797 35.4602C78.3549 36.322 78.1925 37.2898 78.1925 38.3636C78.1925 39.4508 78.3582 40.4384 78.6896 41.3267C79.0277 42.2083 79.5249 42.911 80.1811 43.4347C80.844 43.9517 81.666 44.2102 82.647 44.2102ZM91.6524 30.7273H93.999V47.1136C93.999 48.0549 93.8366 48.8703 93.5118 49.5597C93.1936 50.2491 92.7097 50.7827 92.0601 51.1605C91.4171 51.5384 90.6051 51.7273 89.624 51.7273C89.5445 51.7273 89.4649 51.7273 89.3854 51.7273C89.3058 51.7273 89.2263 51.7273 89.1467 51.7273V49.5398C89.2263 49.5398 89.2992 49.5398 89.3655 49.5398C89.4318 49.5398 89.5047 49.5398 89.5842 49.5398C90.3001 49.5398 90.8238 49.3277 91.1553 48.9034C91.4867 48.4858 91.6524 47.8892 91.6524 47.1136V30.7273ZM92.8058 28.1818C92.3484 28.1818 91.954 28.026 91.6226 27.7145C91.2978 27.4029 91.1354 27.0284 91.1354 26.5909C91.1354 26.1534 91.2978 25.7789 91.6226 25.4673C91.954 25.1558 92.3484 25 92.8058 25C93.2632 25 93.6543 25.1558 93.9791 25.4673C94.3106 25.7789 94.4763 26.1534 94.4763 26.5909C94.4763 27.0284 94.3106 27.4029 93.9791 27.7145C93.6543 28.026 93.2632 28.1818 92.8058 28.1818ZM102.201 46.3182C100.823 46.3182 99.6129 45.9901 98.5722 45.3338C97.5381 44.6776 96.7294 43.7595 96.1461 42.5795C95.5694 41.3996 95.281 40.0208 95.281 38.4432C95.281 36.8523 95.5694 35.4635 96.1461 34.277C96.7294 33.0904 97.5381 32.169 98.5722 31.5128C99.6129 30.8565 100.823 30.5284 102.201 30.5284C103.58 30.5284 104.787 30.8565 105.821 31.5128C106.862 32.169 107.67 33.0904 108.247 34.277C108.83 35.4635 109.122 36.8523 109.122 38.4432C109.122 40.0208 108.83 41.3996 108.247 42.5795C107.67 43.7595 106.862 44.6776 105.821 45.3338C104.787 45.9901 103.58 46.3182 102.201 46.3182ZM102.201 44.2102C103.249 44.2102 104.111 43.9418 104.787 43.4048C105.463 42.8679 105.963 42.1619 106.288 41.2869C106.613 40.4119 106.775 39.464 106.775 38.4432C106.775 37.4223 106.613 36.4711 106.288 35.5895C105.963 34.7079 105.463 33.9953 104.787 33.4517C104.111 32.9081 103.249 32.6364 102.201 32.6364C101.154 32.6364 100.292 32.9081 99.6163 33.4517C98.9401 33.9953 98.4397 34.7079 98.1148 35.5895C97.79 36.4711 97.6276 37.4223 97.6276 38.4432C97.6276 39.464 97.79 40.4119 98.1148 41.2869C98.4397 42.1619 98.9401 42.8679 99.6163 43.4048C100.292 43.9418 101.154 44.2102 102.201 44.2102ZM120.029 39.7557V30.7273H122.376V46H120.029V43.4148H119.87C119.512 44.1903 118.955 44.8499 118.199 45.3935C117.444 45.9304 116.489 46.1989 115.336 46.1989C114.381 46.1989 113.533 45.9901 112.79 45.5724C112.048 45.1482 111.465 44.5118 111.04 43.6634C110.616 42.8082 110.404 41.7311 110.404 40.4318V30.7273H112.751V40.2727C112.751 41.3864 113.062 42.2746 113.685 42.9375C114.315 43.6004 115.117 43.9318 116.091 43.9318C116.675 43.9318 117.268 43.7827 117.871 43.4844C118.481 43.1861 118.992 42.7287 119.403 42.1122C119.82 41.4957 120.029 40.7102 120.029 39.7557ZM124.374 46V30.7273H126.641V33.0341H126.8C127.078 32.2784 127.582 31.6652 128.311 31.1946C129.04 30.724 129.862 30.4886 130.777 30.4886C130.949 30.4886 131.165 30.4919 131.423 30.4986C131.682 30.5052 131.877 30.5152 132.01 30.5284V32.9148C131.93 32.8949 131.748 32.8651 131.463 32.8253C131.185 32.7789 130.89 32.7557 130.578 32.7557C129.836 32.7557 129.173 32.9115 128.589 33.223C128.013 33.5279 127.555 33.9522 127.217 34.4957C126.886 35.0327 126.72 35.6458 126.72 36.3352V46H124.374ZM134.838 36.8125V46H132.491V30.7273H134.759V33.1136H134.957C135.315 32.3381 135.859 31.715 136.588 31.2443C137.317 30.767 138.259 30.5284 139.412 30.5284C140.446 30.5284 141.351 30.7405 142.126 31.1648C142.902 31.5824 143.505 32.2188 143.936 33.0739C144.367 33.9223 144.582 34.9962 144.582 36.2955V46H142.236V36.4545C142.236 35.2547 141.924 34.3201 141.301 33.6506C140.678 32.9744 139.823 32.6364 138.736 32.6364C137.987 32.6364 137.317 32.7988 136.727 33.1236C136.144 33.4484 135.683 33.9223 135.345 34.5455C135.007 35.1686 134.838 35.9242 134.838 36.8125ZM152.974 46.3182C151.502 46.3182 150.233 45.9934 149.166 45.3438C148.105 44.6875 147.286 43.7727 146.71 42.5994C146.14 41.4195 145.854 40.0473 145.854 38.483C145.854 36.9186 146.14 35.5398 146.71 34.3466C147.286 33.1468 148.088 32.2121 149.116 31.5426C150.15 30.8665 151.356 30.5284 152.735 30.5284C153.531 30.5284 154.316 30.661 155.092 30.9261C155.867 31.1913 156.573 31.6222 157.21 32.2188C157.846 32.8087 158.353 33.5909 158.731 34.5653C159.109 35.5398 159.298 36.7396 159.298 38.1648V39.1591H147.525V37.1307H156.911C156.911 36.2689 156.739 35.5 156.394 34.8239C156.056 34.1477 155.572 33.6141 154.943 33.223C154.319 32.8319 153.584 32.6364 152.735 32.6364C151.8 32.6364 150.992 32.8684 150.309 33.3324C149.633 33.7898 149.113 34.3864 148.748 35.1222C148.383 35.858 148.201 36.6468 148.201 37.4886V38.8409C148.201 39.9943 148.4 40.9721 148.798 41.7741C149.202 42.5696 149.762 43.1761 150.478 43.5938C151.194 44.0047 152.026 44.2102 152.974 44.2102C153.59 44.2102 154.147 44.1241 154.644 43.9517C155.148 43.7727 155.582 43.5076 155.947 43.1562C156.311 42.7983 156.593 42.3542 156.792 41.8239L159.059 42.4602C158.82 43.2292 158.419 43.9053 157.856 44.4886C157.292 45.0653 156.596 45.5161 155.768 45.8409C154.939 46.1591 154.008 46.3182 152.974 46.3182ZM161.614 51.7273C161.216 51.7273 160.861 51.6941 160.55 51.6278C160.238 51.5682 160.023 51.5085 159.904 51.4489L160.5 49.3807C161.07 49.5265 161.574 49.5795 162.012 49.5398C162.449 49.5 162.837 49.3045 163.175 48.9531C163.52 48.6084 163.834 48.0483 164.119 47.2727L164.557 46.0795L158.909 30.7273H161.455L165.671 42.8977H165.83L170.046 30.7273H172.591L166.108 48.2273C165.816 49.0161 165.455 49.669 165.024 50.1861C164.593 50.7098 164.093 51.0975 163.523 51.3494C162.959 51.6013 162.323 51.7273 161.614 51.7273Z" fill="white"/>
<path d="M5.05305 20.0415C5.46186 19.897 5.84385 20.1638 6.20463 20.3172C9.47842 21.86 12.4339 24.0286 15.014 26.5496C19.1367 30.5901 22.32 35.7721 23.256 41.5132C23.3934 41.8867 22.9623 42.2768 22.606 42.0868C20.4893 41.2431 18.2554 40.6573 15.9757 40.4984C12.3736 40.216 8.71107 41.1331 5.63387 43.0082C5.43728 43.136 5.18485 43.2806 4.95588 43.1316C4.66882 42.9793 4.65765 42.5692 4.88663 42.3602C6.96416 39.7436 8.24865 36.4946 8.39833 33.1544C8.6206 28.7571 7.14734 24.4288 4.92237 20.6773C4.78052 20.475 4.84865 20.1749 5.05305 20.0415ZM6.43696 21.4621C8.24754 24.8845 9.42481 28.7127 9.35332 32.6075C9.31088 35.6887 8.39274 38.7466 6.73853 41.352C8.48768 40.5073 10.3686 39.9326 12.2965 39.6792C15.6384 39.229 19.0563 39.7781 22.2016 40.9363C21.2109 35.9555 18.4755 31.4504 14.9638 27.8212C12.4853 25.2702 9.61692 23.0761 6.43696 21.4621Z" fill="white"/>
<path d="M14.7944 23.6644C14.9888 23.5599 15.2032 23.6655 15.3942 23.7233C17.3087 24.3858 19.0087 25.5351 20.5613 26.8101C23.4944 29.2621 25.9416 32.27 27.8527 35.5679C28.9071 37.4097 29.7918 39.3549 30.4016 41.3879C30.5356 41.7203 30.1626 42.1015 29.8264 41.9704C29.1249 41.7136 28.4425 41.379 27.6964 41.2668C27.063 41.1579 26.4174 41.239 25.7975 41.3857C25.5529 41.4657 25.2703 41.2968 25.2223 41.0467C24.1981 37.3797 22.7561 33.7961 20.6439 30.6104C19.0701 28.2317 17.0965 26.0965 14.7397 24.4703C14.4359 24.2958 14.4727 23.7978 14.7944 23.6644ZM18.4089 26.3488C22.1853 30.2214 24.5287 35.2489 26.0064 40.3864C27.0809 40.1697 28.1979 40.3209 29.2087 40.7288C27.989 37.2641 26.0522 34.0729 23.6954 31.2585C22.1395 29.4222 20.3982 27.7204 18.4089 26.3488Z" fill="white"/>
<path d="M32.7736 42.7319C33.0171 42.7152 33.2629 42.6885 33.5086 42.7019C33.8604 42.763 34.0079 43.2632 33.7253 43.4922C31.3551 45.6385 28.5504 47.2447 25.681 48.6342C26.1825 48.9843 26.8292 49.191 27.4301 48.9821C28.3025 48.6786 28.8889 47.9194 29.6506 47.437C30.4213 46.8957 31.4634 46.7256 32.3425 47.1047C33.388 47.5115 34.0503 48.5141 35.079 48.9454C35.4052 49.1243 35.8877 48.9376 36.1156 49.2866C36.3334 49.6112 36.0094 50.0658 35.6308 49.9925C34.4792 49.9769 33.6192 49.1321 32.7826 48.4541C32.2219 47.9772 31.4333 47.6438 30.7039 47.935C29.6127 48.3774 28.9268 49.4667 27.7931 49.8402C26.8448 50.197 25.7715 49.9013 25.003 49.2866C24.2301 48.7531 23.5789 47.8894 22.5691 47.8294C21.5572 47.7938 20.8591 48.6297 20.1197 49.1855C19.3892 49.789 18.4018 50.1703 17.4524 49.918C16.3354 49.6557 15.6139 48.6986 14.6756 48.1217C14.1306 47.7738 13.4034 47.7271 12.8327 48.0417C11.8833 48.5497 11.2109 49.4889 10.1676 49.8402C9.25395 50.187 8.25987 49.8491 7.4322 49.43C6.56992 48.9954 5.94219 48.2451 5.19606 47.656C4.89114 47.3781 4.5069 47.6449 4.19863 47.776C3.04816 48.2718 2.23167 49.2888 1.1136 49.8368C0.760645 50.0114 0.161958 50.1325 0 49.6512V49.3878C0.154139 48.9887 0.647833 49.1054 0.93824 48.8809C1.77707 48.3474 2.49639 47.6471 3.35644 47.1447C3.0437 46.5356 2.71308 45.9353 2.4048 45.324C2.23837 45.0472 2.46511 44.6582 2.78568 44.6559C12.7802 44.0079 22.778 43.3754 32.7736 42.7319ZM3.56643 45.533C3.77753 45.9376 3.98864 46.3422 4.20421 46.7456C4.56164 46.6312 4.9548 46.5089 5.32005 46.6734C5.98687 46.9479 6.43365 47.546 6.98095 47.9883C7.65224 48.5686 8.48661 49.0065 9.38575 49.0621C10.1888 49.0021 10.7864 48.4018 11.3773 47.9228C12.11 47.2825 13.0605 46.7534 14.0703 46.9279C15.262 47.0869 16.045 48.0784 16.9889 48.7075C17.5618 49.1121 18.3571 49.1888 18.9726 48.8309C20.0069 48.2484 20.7642 47.1614 21.9939 46.9457C23.074 46.7101 24.096 47.2959 24.8734 47.985C27.391 46.8001 29.8472 45.4407 32.032 43.71C22.5435 44.3191 13.0549 44.9272 3.56643 45.533Z" fill="white"/>
</svg>
