<svg width="145" height="30" viewBox="0 0 145 30" fill="none" xmlns="http://www.w3.org/2000/svg">
<g clip-path="url(#clip0_2489_859)">
<path d="M28.5056 12.2592C29.1723 10.2222 28.9501 7.96293 27.876 6.11109C26.2464 3.25925 22.9501 1.81481 19.7279 2.48147C18.3204 0.888885 16.2464 0 14.0982 0C10.8019 0 7.91301 2.1111 6.87598 5.2222C4.76486 5.66665 2.95004 6.96294 1.87597 8.85182C0.246332 11.7037 0.616703 15.2592 2.80189 17.7036C2.13522 19.7777 2.39448 21.9999 3.46856 23.8518C5.09819 26.7036 8.3945 28.1851 11.6167 27.4814C13.0612 29.074 15.0982 29.9999 17.2464 29.9999C20.5427 29.9999 23.4316 27.8888 24.4686 24.7777C26.5797 24.3332 28.3945 23.037 29.4686 21.1481C31.0982 18.2962 30.7279 14.7036 28.5056 12.2592ZM17.2464 28.0369C15.913 28.0369 14.6538 27.5925 13.6538 26.7406C13.6908 26.7036 13.8019 26.6666 13.839 26.6295L19.8019 23.1851C20.0982 22.9999 20.2834 22.7036 20.2834 22.3333V13.9259L22.8019 15.3703C22.839 15.3703 22.839 15.4074 22.839 15.4444V22.4073C22.876 25.5184 20.3575 28.0369 17.2464 28.0369ZM5.17227 22.8888C4.5056 21.7407 4.28338 20.4073 4.5056 19.111C4.54264 19.1481 4.61671 19.1851 4.69079 19.2222L10.6538 22.6666C10.9501 22.8518 11.3204 22.8518 11.6167 22.6666L18.913 18.4444V21.3703C18.913 21.4073 18.913 21.4444 18.876 21.4444L12.8389 24.9258C10.1723 26.4814 6.72783 25.5555 5.17227 22.8888ZM3.61671 9.85182C4.28338 8.70367 5.32042 7.85182 6.54264 7.37034V14.4814C6.54264 14.8148 6.72783 15.1481 7.02412 15.3333L14.3204 19.5555L11.8019 20.9999C11.7649 20.9999 11.7278 21.037 11.7278 20.9999L5.69079 17.5185C2.95004 15.9629 2.06115 12.5185 3.61671 9.85182ZM24.3575 14.6666L17.0612 10.4444L19.5797 8.99997C19.6167 8.99997 19.6538 8.96293 19.6538 8.99997L25.6908 12.4814C28.3945 14.037 29.2834 17.4814 27.7279 20.1481C27.0612 21.2962 26.0242 22.1481 24.8019 22.5925V15.5185C24.839 15.1851 24.6538 14.8518 24.3575 14.6666ZM26.839 10.8888C26.8019 10.8518 26.7279 10.8148 26.6538 10.7777L20.6908 7.33331C20.3945 7.14812 20.0241 7.14812 19.7279 7.33331L12.4315 11.5555V8.6296C12.4315 8.59256 12.4315 8.55552 12.4686 8.55552L18.5056 5.07406C21.2093 3.51851 24.6168 4.44443 26.1723 7.14812C26.839 8.25923 27.0612 9.59256 26.839 10.8888ZM11.0612 16.074L8.54264 14.6296C8.50561 14.6296 8.50561 14.5925 8.50561 14.5555V7.59257C8.50561 4.48147 11.0241 1.96296 14.1352 1.96296C15.4686 1.96296 16.7278 2.4074 17.7278 3.25925C17.6908 3.29628 17.6167 3.33332 17.5427 3.37036L11.5797 6.81479C11.2834 6.99997 11.0982 7.29627 11.0982 7.66664V16.074H11.0612ZM12.4315 13.1111L15.6908 11.2222L18.9501 13.1111V16.8518L15.6908 18.7407L12.4315 16.8518V13.1111Z" fill="white"/>
</g>
<g clip-path="url(#clip1_2489_859)">
<path d="M49.2474 1.25879C43.0141 1.25879 37.9141 6.35876 37.9141 12.5921C37.9141 18.8254 43.0141 23.9254 49.2474 23.9254C55.4808 23.9254 60.5808 18.8569 60.5808 12.5921C60.5808 6.32727 55.5122 1.25879 49.2474 1.25879ZM49.2474 19.8643C45.3752 19.8643 42.2585 16.6846 42.2585 12.5921C42.2585 8.49949 45.3752 5.31987 49.2474 5.31987C53.1196 5.31987 56.2363 8.49949 56.2363 12.5921C56.2363 16.6846 53.1196 19.8643 49.2474 19.8643Z" fill="white"/>
<path d="M72.0361 7.55469C69.9898 7.55469 68.0065 8.3732 66.9676 9.75838V7.8695H62.875V29.9065H66.9676V21.9417C68.0065 23.2324 69.9269 23.925 72.0361 23.925C76.4434 23.925 79.9064 20.462 79.9064 15.7398C79.9064 11.0176 76.4434 7.55469 72.0361 7.55469ZM71.3435 20.3676C69.0139 20.3676 66.9361 18.5417 66.9361 15.7398C66.9361 12.938 69.0139 11.1121 71.3435 11.1121C73.6732 11.1121 75.7508 12.938 75.7508 15.7398C75.7508 18.5417 73.6732 20.3676 71.3435 20.3676Z" fill="white"/>
<path d="M89.5432 7.55469C85.0728 7.55469 81.5469 11.0491 81.5469 15.7398C81.5469 20.4306 84.6321 23.925 89.6691 23.925C93.7932 23.925 96.4376 21.438 97.2562 18.6361H93.258C92.7543 19.8009 91.3376 20.6195 89.6376 20.6195C87.5284 20.6195 85.9228 19.1398 85.545 17.0306H97.4451V15.425C97.4451 11.1436 94.4543 7.55469 89.5432 7.55469ZM85.5765 14.1343C86.0173 12.151 87.6543 10.8602 89.6376 10.8602C91.7469 10.8602 93.3525 12.2454 93.5413 14.1343H85.5765Z" fill="white"/>
<path d="M108.338 7.55469C106.512 7.55469 104.591 8.3732 103.71 9.7269V7.8695H99.6172V23.6102H103.71V15.1417C103.71 12.6862 105.032 11.0806 107.173 11.0806C109.156 11.0806 110.226 12.5917 110.226 14.701V23.6102H114.319V14.0398C114.319 10.1362 111.926 7.55469 108.338 7.55469Z" fill="white"/>
<path d="M124.8 1.57422L115.891 23.6112H120.267L122.155 18.7945H132.293L134.181 23.6112H138.62L129.774 1.57422H124.8ZM123.572 15.1427L127.224 5.91865L130.844 15.1427H123.572Z" fill="white"/>
<path d="M144.445 1.57422H140.289V23.6112H144.445V1.57422Z" fill="white"/>
</g>
<defs>
<clipPath id="clip0_2489_859">
<rect width="29.5926" height="29.9999" fill="white" transform="translate(0.875)"/>
</clipPath>
<clipPath id="clip1_2489_859">
<rect width="106.667" height="28.8888" fill="white" transform="translate(37.9141 1.11133)"/>
</clipPath>
</defs>
</svg>
