<svg width="165" height="30" viewBox="0 0 165 30" fill="none" xmlns="http://www.w3.org/2000/svg">
<path fill-rule="evenodd" clip-rule="evenodd" d="M29.6137 7.19315C29.6137 3.39746 26.5385 0.320312 22.7421 0.320312H6.87158C3.07778 0.320312 0 3.39746 0 7.19315V18.108L0.548591 17.9396C1.76425 17.5655 2.37465 17.3785 2.72235 16.9049C3.07263 16.4313 3.07263 15.7946 3.07263 14.5213V7.19315C3.07263 5.09474 4.77508 3.39357 6.87158 3.39357H22.7421C24.836 3.39357 26.5359 5.0886 26.541 7.18191V9.94966L29.6137 9.00506V7.19315ZM29.6137 12.2145L29.0677 12.3829C28.4624 12.569 28.0091 12.7087 27.6614 12.8604C27.3085 13.0139 27.0665 13.1794 26.8913 13.4176C26.8192 13.5152 26.76 13.6198 26.7136 13.7354C26.6621 13.8706 26.626 14.021 26.6003 14.1935C26.541 14.5882 26.541 15.0975 26.541 15.801V23.1181C26.541 25.2165 24.8412 26.9177 22.7421 26.9177H6.87158C4.77765 26.9177 3.08036 25.2227 3.07263 23.1294V20.3729L0 21.3175V23.1181C0 26.9138 3.07778 29.991 6.87158 29.991H22.7421C26.5385 29.991 29.6137 26.9138 29.6137 23.1181V12.2145ZM8.2804 19.813V14.0747C8.2804 12.5622 8.59718 12.2467 10.109 12.2467H10.6731C12.1875 12.2467 12.5017 12.5622 12.5017 14.0747V19.813C12.5017 21.3255 12.1875 21.641 10.6731 21.641H10.109C8.59718 21.641 8.2804 21.3252 8.2804 19.813ZM17.1119 10.5015C17.1119 8.9893 17.4287 8.67347 18.9406 8.67347H19.5046C21.0191 8.67347 21.3333 8.98897 21.3333 10.5015V19.8127C21.3333 21.3252 21.0191 21.6407 19.5046 21.6407H18.9406C17.4287 21.6407 17.1119 21.3252 17.1119 19.8127V10.5015Z" fill="white"/>
<path fill-rule="evenodd" clip-rule="evenodd" d="M51.6858 10.1606C51.5958 9.23537 51.2019 8.51679 50.5063 8.00425C50.0583 7.67491 49.5071 7.45146 48.8556 7.33397C48.4923 7.26862 48.0984 7.23609 47.6734 7.23609C46.8621 7.23609 46.1767 7.35071 45.6206 7.57993C45.1597 7.76247 44.7888 8.00488 44.5053 8.30689C44.4437 8.3716 44.387 8.43889 44.3355 8.50904C44.0444 8.90666 43.9 9.35771 43.9 9.8625C43.8845 10.283 43.9722 10.65 44.1628 10.9636L44.2505 11.0927C44.3378 11.214 44.4384 11.3286 44.5518 11.4362C44.6187 11.5009 44.6883 11.563 44.7628 11.6226C44.8323 11.6764 44.9019 11.7282 44.9767 11.7781C45.3219 11.9996 45.7185 12.1947 46.1691 12.3627C46.6224 12.5234 47.1041 12.6612 47.6167 12.7758L49.726 13.2803C50.1354 13.3717 50.532 13.4754 50.9134 13.5913C51.2405 13.6907 51.5573 13.7989 51.8635 13.9158C52.0979 14.0046 52.3247 14.0986 52.5463 14.1978C53.4038 14.5803 54.1455 15.0506 54.7716 15.6086C55.3999 16.1668 55.8842 16.8245 56.2294 17.5814C56.5821 18.3387 56.7598 19.2063 56.7677 20.185C56.7598 21.6225 56.3942 22.869 55.6679 23.924C55.2816 24.4881 54.8026 24.9845 54.2279 25.4133C53.7361 25.781 53.1746 26.0991 52.5463 26.3673C51.5701 26.7813 50.4473 27.0459 49.18 27.1609L48.8451 27.1876L48.5105 27.2072C48.2296 27.2207 47.9438 27.2275 47.65 27.2275L47.1196 27.2198C46.7952 27.2101 46.4757 27.1915 46.1665 27.1638C45.4221 27.0974 44.7193 26.979 44.0599 26.8086C43.5809 26.685 43.1273 26.534 42.6948 26.3557C41.2963 25.7746 40.2018 24.9143 39.4135 23.775C38.6358 22.6282 38.2261 21.2097 38.1875 19.5199H42.9934C43.0475 20.3073 43.2717 20.9651 43.6709 21.4927C44.0754 22.0127 44.6134 22.4064 45.2856 22.6739C45.9684 22.9341 46.7358 23.0638 47.5933 23.0638C47.9771 23.0638 48.3351 23.0384 48.6727 22.9875C49.0745 22.927 49.4454 22.8301 49.7827 22.6968C50.0246 22.6031 50.2435 22.4953 50.442 22.3732C50.7615 22.1772 51.0265 21.9447 51.2405 21.6762C51.583 21.2403 51.7554 20.7394 51.7554 20.1737C51.7554 19.8312 51.6885 19.5241 51.5573 19.2526C51.4851 19.1058 51.3951 18.9693 51.2866 18.8431C50.9804 18.4838 50.5297 18.178 49.932 17.9256C49.3449 17.6732 48.6212 17.444 47.7634 17.2373L45.2059 16.595C43.2252 16.1134 41.6619 15.3604 40.516 14.3356C39.3697 13.3109 38.798 11.9307 38.8056 10.1951C38.803 9.49904 38.8907 8.8458 39.071 8.23571C39.2616 7.59958 39.55 7.0101 39.9413 6.46762C40.7141 5.40457 41.7727 4.57492 43.1197 3.97868C44.4641 3.38211 45.9941 3.08398 47.7067 3.08398C49.4504 3.08398 50.9724 3.38211 52.2733 3.97868C52.4639 4.06558 52.6491 4.15736 52.8268 4.25458C52.9482 4.32025 53.0665 4.38816 53.1822 4.45868C53.3293 4.54819 53.471 4.64155 53.6075 4.73844C53.7285 4.82475 53.8468 4.91359 53.9629 5.00534C54.2691 5.25035 54.55 5.51626 54.8049 5.80311C54.9905 6.01334 55.1629 6.23484 55.3228 6.46762C56.049 7.53035 56.4249 8.76147 56.4483 10.1606H51.6858ZM74.9972 3.40528H79.9656V18.6596C79.9656 20.3727 79.5559 21.8713 78.7369 23.1559C77.9256 24.4404 76.7899 25.442 75.3295 26.1609C73.869 26.8721 72.1693 27.2275 70.2275 27.2275C68.2778 27.2275 66.5728 26.8721 65.1123 26.1609C63.6519 25.442 62.5162 24.4404 61.7049 23.1559C61.2852 22.4924 60.976 21.7715 60.7726 20.9937C60.5846 20.2658 60.4894 19.4877 60.4894 18.6596V3.40528H65.4549V18.2353C65.4549 18.4011 65.4624 18.5634 65.4756 18.7221L65.4908 18.8885L65.5168 19.0759C65.5683 19.4027 65.648 19.714 65.7588 20.0102C65.836 20.2217 65.9312 20.4255 66.0394 20.6212C66.2945 21.0636 66.6113 21.4457 66.9924 21.7677C67.2113 21.9518 67.4536 22.1163 67.7161 22.2612C68.4347 22.6588 69.2718 22.8578 70.2275 22.8578C71.1908 22.8578 72.0278 22.6588 72.7386 22.2612C73.4569 21.8636 74.0108 21.3169 74.4024 20.6212C74.6652 20.1599 74.8402 19.6551 74.9276 19.1065C74.9741 18.8274 74.9972 18.537 74.9972 18.2353V3.40528ZM84.429 26.895V3.40528H93.6957C95.4704 3.40528 96.9849 3.72272 98.2389 4.35727C99.5009 4.98411 100.459 5.87491 101.116 7.02971C101.783 8.1765 102.115 9.52607 102.115 11.0785C102.115 12.6383 101.778 13.9802 101.106 15.1041C100.434 16.2206 99.4574 17.0769 98.1822 17.6735L97.9686 17.7694L102.952 26.895H97.4688L93.0209 18.5679H89.3945V26.895H84.429ZM92.7687 14.5767H89.3945V7.46564H92.7453C92.9899 7.46564 93.2243 7.47497 93.4485 7.49366C93.6288 7.50846 93.7989 7.52939 93.9638 7.5561C94.3963 7.62628 94.78 7.73768 95.1176 7.88995C95.7535 8.16523 96.2223 8.57056 96.5289 9.10561C96.6628 9.33355 96.7683 9.5837 96.8457 9.85607C96.9486 10.2231 97.0004 10.6307 97.0004 11.0785C97.0004 11.8508 96.8431 12.4966 96.5289 13.0169C96.3331 13.3479 96.073 13.626 95.7486 13.8517C95.6405 13.9267 95.5244 13.9959 95.4034 14.0594C95.3157 14.1048 95.2257 14.1473 95.1305 14.1865C94.5018 14.4467 93.7165 14.5767 92.7687 14.5767ZM106.002 26.895V3.40528H121.556V7.49976H110.967V13.0971H120.523V17.1916H110.967V26.895H106.002ZM125.275 26.895V3.40528H141.104V7.49976H130.24V13.0971H140.287V17.1916H130.24V22.8002H141.148V26.895H125.275ZM145.428 26.895V3.40528H154.695C156.47 3.40528 157.984 3.72272 159.238 4.35727C160.5 4.98411 161.458 5.87491 162.115 7.02971C162.782 8.1765 163.114 9.52607 163.114 11.0785C163.114 12.6383 162.777 13.9802 162.105 15.1041C161.744 15.701 161.299 16.2235 160.766 16.6716C160.302 17.0618 159.774 17.3957 159.179 17.6735L158.968 17.7694L163.951 26.895H158.468L154.02 18.5679H150.394V26.895H145.428ZM153.768 14.5767H150.394V7.46564H153.745C154.7 7.46564 155.491 7.60697 156.117 7.88995C156.588 8.09376 156.967 8.36837 157.255 8.71446C157.358 8.83614 157.448 8.96653 157.528 9.10561C157.842 9.641 158 10.2984 158 11.0785C158 11.8508 157.842 12.4966 157.528 13.0169C157.222 13.5368 156.755 13.9267 156.13 14.1865C155.501 14.4467 154.716 14.5767 153.768 14.5767Z" fill="white"/>
</svg>
