<svg width="110" height="30" viewBox="0 0 110 30" fill="none" xmlns="http://www.w3.org/2000/svg">
<g clip-path="url(#clip0_2489_901)">
<path d="M25.8326 20.4797L25.8172 20.4305L35.5978 11.4527V7.12695H19.9065V11.4527H29.2789L29.2943 11.4941L19.6094 20.4797V24.8056H35.7553V20.4797H25.8326Z" fill="white"/>
<path d="M45.3889 6.71582C43.5789 6.71582 42.1038 6.98953 40.9636 7.53694C39.9016 8.014 39.0069 8.80003 38.3957 9.79305C37.8112 10.7926 37.444 11.9049 37.3186 13.0568L42.0796 13.7277C42.2519 12.7105 42.5964 11.9896 43.113 11.5648C43.7004 11.1205 44.4242 10.896 45.159 10.9302C46.1252 10.9302 46.8261 11.1892 47.2619 11.7072C47.6934 12.2253 47.9129 12.9428 47.9129 13.8882V14.3597H43.3352C41.0049 14.3597 39.3309 14.8777 38.3132 15.9138C37.2953 16.9499 36.7873 18.3176 36.7891 20.0168C36.7891 21.7574 37.297 23.0526 38.3132 23.9021C39.3292 24.7518 40.6072 25.174 42.1469 25.1687C44.0568 25.1687 45.5259 24.5101 46.554 23.1925C47.1612 22.3827 47.5948 21.4559 47.8276 20.4701H48.0007L48.657 24.7957H52.9712V13.8416C52.9712 11.5777 52.3761 9.82415 51.1861 8.58083C49.9959 7.3375 48.0636 6.71582 45.3889 6.71582ZM46.8976 20.2188C46.213 20.7913 45.3167 21.0762 44.2006 21.0762C43.2808 21.0762 42.6419 20.9148 42.2838 20.5918C42.1093 20.4391 41.9703 20.2496 41.877 20.037C41.7837 19.8243 41.7382 19.5937 41.7439 19.3615C41.7336 19.1424 41.7681 18.9236 41.8449 18.7183C41.9217 18.5131 42.0394 18.3256 42.1907 18.1673C42.3544 18.0134 42.5476 17.8943 42.7585 17.8173C42.9695 17.7403 43.1937 17.7069 43.4179 17.7192H47.9206V18.0171C47.9299 18.4382 47.8423 18.8557 47.665 19.2374C47.4874 19.6192 47.225 19.955 46.8976 20.2188Z" fill="white"/>
<path d="M79.0501 7.12695H73.9531V24.808H79.0501V7.12695Z" fill="white"/>
<path d="M109.144 7.12695C107.704 7.12695 106.569 7.63636 105.739 8.65521C105.143 9.38739 104.69 10.4693 104.38 11.9008H104.23L103.564 7.12695H99.2109V24.8056H104.308V15.7396C104.308 14.5964 104.575 13.72 105.109 13.1105C105.643 12.5009 106.628 12.1961 108.064 12.1961H109.999V7.12695H109.144Z" fill="white"/>
<path d="M94.1588 7.70556C92.9688 6.99584 91.468 6.64184 89.656 6.64356C86.8042 6.64356 84.5721 7.45777 82.9601 9.08618C81.348 10.7146 80.5421 12.9595 80.5421 15.8208C80.501 17.5508 80.8776 19.265 81.6399 20.8174C82.3377 22.2008 83.4245 23.349 84.7659 24.12C86.116 24.9024 87.722 25.2944 89.5837 25.2959C91.1941 25.2959 92.5391 25.0473 93.6189 24.5501C94.6342 24.1034 95.5182 23.4033 96.1868 22.5167C96.8234 21.6463 97.2962 20.6666 97.5818 19.6259L93.1901 18.393C93.0053 19.0697 92.6494 19.6871 92.1568 20.1854C91.6607 20.6827 90.8297 20.9314 89.6637 20.9314C88.2775 20.9314 87.2442 20.5334 86.5637 19.7373C86.0705 19.1623 85.7605 18.3412 85.6234 17.2766H97.6491C97.6981 16.7792 97.7239 16.3622 97.7239 16.0255V14.9246C97.7529 13.4457 97.4482 11.9793 96.8327 10.6351C96.2565 9.41062 95.3243 8.38943 94.1588 7.70556ZM89.5089 10.8579C91.5756 10.8579 92.7475 11.8776 93.0247 13.917H85.7139C85.83 13.2365 86.1112 12.5951 86.5329 12.0494C87.2028 11.2533 88.1948 10.8562 89.5089 10.8579Z" fill="white"/>
<path d="M76.5617 0.00165855C76.1783 -0.0114167 75.7961 0.0529255 75.438 0.190866C75.0798 0.328807 74.7531 0.537523 74.477 0.80462C74.2049 1.07428 73.9915 1.39774 73.8505 1.75445C73.7094 2.11117 73.6439 2.49335 73.6582 2.8768C73.6443 3.26272 73.7101 3.64734 73.8511 4.00665C73.9924 4.36599 74.2058 4.69231 74.4781 4.96524C74.7507 5.23818 75.0763 5.45188 75.4347 5.59304C75.7933 5.73419 76.177 5.79975 76.5617 5.78563C76.9441 5.80013 77.3256 5.73459 77.6813 5.59321C78.0371 5.45186 78.3596 5.23774 78.6284 4.96451C78.895 4.68847 79.1032 4.36123 79.2402 4.00244C79.3775 3.64365 79.4409 3.26078 79.4266 2.8768C79.4442 2.4951 79.3823 2.1139 79.2446 1.75755C79.1071 1.40121 78.897 1.07754 78.6278 0.807229C78.3583 0.536914 78.0357 0.325886 77.6804 0.187625C77.3251 0.0493648 76.945 -0.0130847 76.5644 0.00425131L76.5617 0.00165855Z" fill="white"/>
<path d="M66.0305 6.64355C64.2947 6.64355 62.8996 7.19008 61.8456 8.28316C61.0653 9.09305 60.4928 10.3019 60.1276 11.9095H59.9648L59.2985 7.13569H54.9453V29.8885H60.0423V20.517H60.2284C60.3839 21.1418 60.602 21.7493 60.8794 22.3301C61.3106 23.2762 62.0177 24.0692 62.9073 24.6044C63.8298 25.1091 64.8689 25.3603 65.9194 25.3323C68.0534 25.3323 69.6783 24.4991 70.7943 22.8326C71.9102 21.1662 72.4683 18.8411 72.4683 15.8571C72.4683 12.975 71.9284 10.7189 70.8485 9.08875C69.7687 7.45863 68.1627 6.64355 66.0305 6.64355ZM66.5472 19.4549C65.953 20.3184 65.0231 20.7501 63.7572 20.7501C63.2354 20.7742 62.7151 20.6734 62.2399 20.4558C61.7644 20.2382 61.3478 19.9102 61.0241 19.499C60.3644 18.6684 60.0355 17.5313 60.0372 16.0876V15.7509C60.0372 14.2848 60.3661 13.1624 61.0241 12.3835C61.6819 11.6048 62.593 11.2197 63.7572 11.2283C65.0455 11.2283 65.9814 11.6384 66.5653 12.4587C67.1492 13.2789 67.4411 14.423 67.4411 15.8907C67.4446 17.4086 67.1483 18.5967 66.5523 19.4549H66.5472Z" fill="white"/>
<path d="M17.6339 20.4805H0V24.8114H17.6339V20.4805Z" fill="white"/>
</g>
<defs>
<clipPath id="clip0_2489_901">
<rect width="110" height="30" fill="white"/>
</clipPath>
</defs>
</svg>
