<svg width="200" height="80" viewBox="0 0 200 80" fill="none" xmlns="http://www.w3.org/2000/svg">
  <path d="M35.5,22 C35.5,22 31,25 31,30 C31,35 35.5,38 35.5,38 L41,33.5 L46.5,38 C46.5,38 51,35 51,30 C51,25 46.5,22 46.5,22 L41,26.5 L35.5,22 Z" fill="#0081FF"/>
  <path d="M60,22 L60,38 L65,38 L65,33 L70,33 L70,38 L75,38 L75,22 L70,22 L70,28 L65,28 L65,22 L60,22 Z" fill="#0081FF"/>
  <path d="M80,22 L80,38 L95,38 L95,33 L85,33 L85,32 L95,32 L95,22 L80,22 Z M85,27 L90,27 L90,28 L85,28 L85,27 Z" fill="#0081FF"/>
  <path d="M100,22 L100,38 L115,38 L115,33 L105,33 L105,32 L115,32 L115,22 L100,22 Z M105,27 L110,27 L110,28 L105,28 L105,27 Z" fill="#0081FF"/>
  <path d="M120,22 L120,38 L135,38 L135,33 L125,33 L125,32 L135,32 L135,27 L125,27 L125,26 L135,26 L135,22 L120,22 Z" fill="#0081FF"/>
  <path d="M140,22 L140,38 L145,38 L145,32 L150,38 L155,38 L155,22 L150,22 L150,28 L145,22 L140,22 Z" fill="#0081FF"/>
  <path d="M160,22 L160,38 L165,38 L165,22 L160,22 Z" fill="#0081FF"/>
  <text x="41" y="55" font-family="Arial" font-size="10" fill="#0081FF" text-anchor="middle">ENTERTAINMENT</text>
</svg>