<svg width="200" height="80" viewBox="0 0 200 80" fill="none" xmlns="http://www.w3.org/2000/svg">
  <path d="M40,30 L40,50 L45,50 L45,30 L40,30 Z" fill="#4CAF50"/>
  <path d="M50,30 L50,50 L70,50 L70,45 L55,45 L55,42 L70,42 L70,37 L55,37 L55,35 L70,35 L70,30 L50,30 Z" fill="#4CAF50"/>
  <path d="M75,30 L75,50 L95,50 L95,45 L80,45 L80,30 L75,30 Z" fill="#4CAF50"/>
  <path d="M100,30 L100,50 L120,50 L120,45 L105,45 L105,42 L120,42 L120,37 L105,37 L105,35 L120,35 L120,30 L100,30 Z" fill="#4CAF50"/>
  <path d="M125,30 L125,50 L145,50 L145,45 L130,45 L130,42 L145,42 L145,37 L130,37 L130,35 L145,35 L145,30 L125,30 Z" fill="#4CAF50"/>
  <path d="M150,30 L150,50 L155,50 L155,30 L150,30 Z" fill="#4CAF50"/>
  <path d="M160,30 L160,50 L165,50 L165,30 L160,30 Z" fill="#4CAF50"/>
</svg>