<svg width="200" height="80" viewBox="0 0 200 80" fill="none" xmlns="http://www.w3.org/2000/svg">
  <path d="M40,30 L40,50 L45,50 L45,42 L55,42 L55,50 L60,50 L60,30 L55,30 L55,37 L45,37 L45,30 L40,30 Z" fill="#9E9E9E"/>
  <path d="M65,30 L65,50 L70,50 L70,42 L75,50 L80,50 L85,42 L85,50 L90,50 L90,30 L85,30 L77.5,42 L70,30 L65,30 Z" fill="#9E9E9E"/>
  <path d="M95,30 L95,50 L115,50 L115,45 L100,45 L100,42 L115,42 L115,37 L100,37 L100,35 L115,35 L115,30 L95,30 Z" fill="#9E9E9E"/>
  <path d="M120,30 L120,50 L140,50 L140,45 L125,45 L125,42 L140,42 L140,37 L125,37 L125,35 L140,35 L140,30 L120,30 Z" fill="#9E9E9E"/>
  <path d="M145,30 L145,50 L165,50 L165,45 L150,45 L150,42 L165,42 L165,37 L150,37 L150,35 L165,35 L165,30 L145,30 Z" fill="#9E9E9E"/>
  <path d="M170,30 L170,50 L175,50 L175,42 L180,50 L185,50 L185,30 L180,30 L180,38 L175,30 L170,30 Z" fill="#9E9E9E"/>
</svg>