<svg width="72" height="34" viewBox="0 0 72 34" fill="none" xmlns="http://www.w3.org/2000/svg">
<path d="M5.73212 34C8.89259 34 11.4582 31.4619 11.4582 28.3353V22.6707H5.73212C2.57164 22.6707 0.00600433 25.2088 0.00600433 28.3353C0.00600433 31.4619 2.57164 34 5.73212 34Z" fill="#0ACF83"/>
<path d="M0 17C0 13.8734 2.56563 11.3353 5.72611 11.3353H11.4522V22.6706H5.72611C2.56563 22.6706 0 20.1325 0 17.006V17Z" fill="#A259FF"/>
<path d="M0 5.66468C0 2.53811 2.56563 0 5.72611 0H11.4522V11.3353H5.72611C2.56563 11.3353 0 8.7972 0 5.67063V5.66468Z" fill="#F24E1E"/>
<path d="M11.4041 0H17.1303C20.2907 0 22.8564 2.53811 22.8564 5.66469C22.8564 8.79126 20.2907 11.3294 17.1303 11.3294H11.4041V0Z" fill="#FF7262"/>
<path d="M22.9165 17C22.9165 20.1266 20.3508 22.6647 17.1903 22.6647C14.0299 22.6647 11.4041 20.1266 11.4041 17C11.4041 13.8734 13.9698 11.3353 17.1303 11.3353C20.2907 11.3353 22.8564 13.8734 22.8564 17H22.9165Z" fill="#1ABCFE"/>
<path d="M29.1773 9.3916V21.2678H30.7215V15.5972H34.4348V14.1231H30.7215V10.8776H35.5463V9.3916H29.1773ZM38.3403 11.8049C38.8991 11.8049 39.3497 11.3591 39.3497 10.8063C39.3497 10.2535 38.8931 9.86713 38.3403 9.86713C37.7875 9.86713 37.3309 10.3129 37.3309 10.8657C37.3309 11.1332 37.439 11.3829 37.6313 11.579C37.8236 11.7752 38.0759 11.8762 38.3523 11.8762L38.3403 11.8049ZM37.5592 13.3028V21.2678H39.0433V13.3028H37.5111H37.5592ZM44.8415 13.065C42.7866 13.065 41.3566 14.8482 41.3566 16.8217C41.3566 18.7951 42.7986 20.5664 44.8415 20.5664C45.2666 20.5738 45.6886 20.4936 46.0806 20.3309C46.4727 20.1681 46.8262 19.9265 47.1187 19.6213V20.6794C47.1144 21.3151 46.8652 21.9252 46.4218 22.3853C46.1977 22.6114 45.9304 22.7909 45.6353 22.9134C45.3402 23.0359 45.0233 23.0989 44.7033 23.0986C44.2119 23.0832 43.7358 22.9262 43.3334 22.6468L42.5523 23.9724C43.1521 24.354 43.8449 24.5686 44.5577 24.5934C45.2704 24.6182 45.9767 24.4525 46.6023 24.1136C47.2278 23.7747 47.7493 23.2751 48.112 22.6676C48.4746 22.0601 48.665 21.3671 48.6629 20.6615V13.2909H47.1187V14.0042C46.8262 13.699 46.4727 13.4574 46.0806 13.2947C45.6886 13.1319 45.2666 13.0517 44.8415 13.0591V13.065ZM42.9068 16.8217C42.8716 16.4352 42.9463 16.0468 43.1226 15.7001C43.2988 15.3535 43.5696 15.0626 43.9042 14.8601C44.5892 14.444 45.4484 14.444 46.1273 14.8601C46.8063 15.2762 47.1908 16.0371 47.1247 16.8217C47.1599 17.2081 47.0852 17.5966 46.9089 17.9432C46.7327 18.2898 46.4619 18.5808 46.1273 18.7832C45.4424 19.1993 44.5831 19.1993 43.9042 18.7832C43.2252 18.3671 42.8407 17.6063 42.9068 16.8217Z" fill="black"/>
<path d="M54.2328 14.6223C53.7887 14.6239 53.3632 14.7991 53.0492 15.1098C52.7352 15.4205 52.558 15.8414 52.5565 16.2807V21.3213H51.0123V13.3562H52.5565V14.0279C53.0251 13.4097 53.7702 13.0531 54.5513 13.065C55.5367 13.0412 56.456 13.5643 56.9427 14.4143C57.5435 13.5821 58.4087 13.0769 59.3461 13.065C61.1066 13.065 62.2001 14.4678 62.2061 16.2034V21.2737H60.6619V16.2213C60.7072 15.9066 60.6604 15.5856 60.5271 15.2963C60.3937 15.0071 60.1795 14.7617 59.9096 14.5891C59.6397 14.4165 59.3255 14.324 59.0042 14.3226C58.6828 14.3211 58.3678 14.4107 58.0963 14.5807C57.8263 14.7548 57.6126 15.002 57.4805 15.2929C57.3484 15.5837 57.3035 15.906 57.3512 16.2213V21.2618H55.8671V16.2272C55.8656 15.7879 55.6884 15.367 55.3744 15.0563C55.0604 14.7456 54.6349 14.5704 54.1908 14.5688L54.2328 14.6223ZM70.4558 14.2062C70.1043 13.8434 69.6816 13.5555 69.2135 13.3603C68.7454 13.1651 68.2419 13.0666 67.734 13.0709C65.4327 13.0709 63.8284 14.9968 63.8284 17.2318C63.8284 19.4667 65.4507 21.3926 67.734 21.3926C68.2419 21.397 68.7454 21.2985 69.2135 21.1032C69.6816 20.908 70.1043 20.6201 70.4558 20.2573V21.1608H72V13.1958H70.4558V14.2062ZM65.3486 17.2972C65.2705 16.3461 65.7391 15.4307 66.5623 14.9314C67.3855 14.4321 68.3648 14.4321 69.2421 14.9314C69.6439 15.1781 69.9695 15.5292 70.1835 15.9463C70.3975 16.3635 70.4917 16.8307 70.4558 17.2972C70.5339 18.2482 70.0653 19.1636 69.2421 19.6629C68.4189 20.1622 67.4395 20.1622 66.5623 19.6629C66.1605 19.4162 65.8349 19.0652 65.6209 18.648C65.4069 18.2309 65.3127 17.7636 65.3486 17.2972Z" fill="black"/>
</svg>
