<svg width="200" height="80" viewBox="0 0 200 80" fill="none" xmlns="http://www.w3.org/2000/svg">
  <path d="M40,30 L40,50 L45,50 L45,30 L40,30 Z" fill="#673AB7"/>
  <path d="M50,30 L50,50 L55,50 L55,35 L70,35 L70,30 L50,30 Z" fill="#673AB7"/>
  <path d="M75,30 L75,50 L80,50 L80,30 L75,30 Z" fill="#673AB7"/>
  <path d="M85,30 L85,50 L90,50 L90,42 L100,42 L100,50 L105,50 L105,30 L100,30 L100,37 L90,37 L90,30 L85,30 Z" fill="#673AB7"/>
  <path d="M110,30 L110,50 L115,50 L115,42 L125,42 L125,50 L130,50 L130,30 L125,30 L125,37 L115,37 L115,30 L110,30 Z" fill="#673AB7"/>
  <path d="M135,30 L135,50 L155,50 L155,45 L140,45 L140,42 L155,42 L155,37 L140,37 L140,35 L155,35 L155,30 L135,30 Z" fill="#673AB7"/>
  <path d="M160,30 L160,50 L165,50 L165,42 L175,42 L175,50 L180,50 L180,30 L175,30 L175,37 L165,37 L165,30 L160,30 Z" fill="#673AB7"/>
</svg>