<svg width="149" height="34" viewBox="0 0 149 34" fill="none" xmlns="http://www.w3.org/2000/svg">
<path fill-rule="evenodd" clip-rule="evenodd" d="M49.9047 18.391L49.8878 18.1711H49.6611H48.2544H48L48.0104 18.4185C48.1265 21.1745 50.036 23 53.4319 23C56.6707 23 58.873 21.3626 58.873 18.884C58.873 17.5438 58.3952 16.5954 57.4847 15.9477C56.7843 15.4495 55.9469 15.1686 54.5582 14.8756C54.4654 14.8561 54.3687 14.836 54.2528 14.8123C54.184 14.7982 53.937 14.7479 53.9501 14.7506C51.4282 14.2361 50.6282 13.7892 50.6282 12.4582C50.6282 11.0818 51.7849 10.2053 53.7249 10.2053C55.6124 10.2053 56.8053 11.3271 56.8608 13.0928L56.868 13.3232H57.1049H58.4921H58.742L58.7362 13.0801C58.6709 10.3277 56.7731 8.47529 53.7054 8.47529C50.6988 8.47529 48.7136 10.2357 48.7136 12.5152C48.7136 13.8516 49.1909 14.7823 50.1028 15.4041C50.7976 15.8778 51.6024 16.1289 53.0221 16.4078C53.0886 16.4209 53.1579 16.4344 53.2405 16.4503C53.2917 16.4602 53.3494 16.4713 53.4578 16.4922C54.801 16.7508 55.3937 16.9104 55.9345 17.2164C56.6057 17.5962 56.9388 18.1387 56.9388 18.9791C56.9388 20.4382 55.6781 21.27 53.4709 21.27C51.3579 21.27 50.0466 20.2388 49.9047 18.391ZM62.8294 8.23764V8H62.5852H61.198H60.9538V8.23764V22.4962V22.7338H61.198H62.5852H62.8294V22.4962V19.9539L64.8037 18.0829L68.3295 22.6391L68.4027 22.7338H68.5246H70.2438H70.7359L70.4384 22.3525L66.1325 16.8336L70.1035 12.9878L70.5228 12.5817H69.9312H68.0752H67.9735L67.9019 12.6519L62.8294 17.623V8.23764ZM80.3545 18.2852H80.5839L80.5982 18.0624C80.6007 18.0232 80.6045 17.9584 80.6082 17.8803C80.6112 17.8186 80.6136 17.7584 80.6153 17.7014C80.6172 17.6398 80.6182 17.5837 80.6182 17.5342C80.6182 14.5514 78.5879 12.3536 75.5873 12.3536C72.5924 12.3536 70.4588 14.6931 70.4588 17.6483C70.4588 20.6892 72.4957 22.962 75.6069 22.962C77.9593 22.962 79.7767 21.6038 80.4315 19.5436L80.5294 19.2357H80.1982H78.7524H78.5799L78.5223 19.3939C78.1111 20.5215 76.9978 21.27 75.6264 21.27C73.8335 21.27 72.5837 20.0719 72.3586 18.2852H80.3545ZM72.4154 16.7072C72.732 15.1075 73.9411 14.0456 75.5873 14.0456C77.2841 14.0456 78.4551 15.0726 78.7112 16.7072H72.4154ZM86.7725 14.1977H87.0168V13.9601V12.8194V12.5817H86.7725H84.7309V10.0627V9.8251H84.4867H83.0995H82.8553V10.0627V12.5817H81.2044H80.9601V12.8194V13.9601V14.1977H81.2044H82.8553V19.8916C82.8553 21.7595 83.8509 22.7719 85.6784 22.7719C85.9974 22.7719 86.2724 22.7533 86.5033 22.7221C86.646 22.7028 86.7445 22.6828 86.7988 22.6681L86.9777 22.6198V22.4392V21.2224V20.9276L86.6816 20.9902C86.6698 20.9927 86.6458 20.9975 86.6115 21.0037C86.5535 21.0143 86.4889 21.0249 86.4195 21.0348C86.242 21.0603 86.0658 21.0765 85.9037 21.0794C85.887 21.0797 85.8705 21.0798 85.8543 21.0798C85.0537 21.0798 84.7309 20.7139 84.7309 19.7966V14.1977H86.7725ZM92.6045 22.962C95.2006 22.962 97.0336 21.3634 97.494 19.1013L97.5517 18.8175H97.2544H95.8477H95.6599L95.6117 18.9941C95.2173 20.4377 94.147 21.27 92.6045 21.27C90.6795 21.27 89.3515 19.7924 89.3515 17.6673C89.3515 15.5258 90.6772 14.0456 92.6045 14.0456C94.147 14.0456 95.2173 14.8779 95.6117 16.3215L95.6599 16.4981H95.8477H97.2544H97.5517L97.494 16.2143C97.0336 13.9522 95.2006 12.3536 92.6045 12.3536C89.5887 12.3536 87.4564 14.7096 87.4564 17.6673C87.4564 20.6087 89.5917 22.962 92.6045 22.962ZM101.006 8.23764V8H100.761H99.3742H99.13V8.23764V22.4962V22.7338H99.3742H100.761H101.006V22.4962V16.7738C101.006 15.0302 102.096 14.0076 103.751 14.0076C105.331 14.0076 106.124 14.8977 106.124 16.5836V22.4962V22.7338H106.369H107.756H108V22.4962V16.3175C108 13.936 106.485 12.3536 103.985 12.3536C102.699 12.3536 101.666 12.812 101.006 13.47V8.23764Z" fill="black"/>
<path fill-rule="evenodd" clip-rule="evenodd" d="M8.24037 1.11942L18.8842 0L29.528 1.11942L37.7684 12.1238L18.8842 33.9999L0 12.1238L8.24037 1.11942Z" fill="#FDB300"/>
<path fill-rule="evenodd" clip-rule="evenodd" d="M7.64896 12.123L18.8841 33.9992L0 12.123H7.64896Z" fill="#EA6C00"/>
<path fill-rule="evenodd" clip-rule="evenodd" d="M30.1206 12.123L18.8854 33.9992L37.7695 12.123H30.1206Z" fill="#EA6C00"/>
<path fill-rule="evenodd" clip-rule="evenodd" d="M7.64844 12.123H30.1187L18.8836 33.9992L7.64844 12.123Z" fill="#FDAD00"/>
<path fill-rule="evenodd" clip-rule="evenodd" d="M18.8836 0L8.23976 1.11923L7.64844 12.1237L18.8836 0Z" fill="#FDD231"/>
<path fill-rule="evenodd" clip-rule="evenodd" d="M18.886 0L29.5298 1.11923L30.1211 12.1237L18.886 0Z" fill="#FDD231"/>
<path fill-rule="evenodd" clip-rule="evenodd" d="M37.7695 12.1236L29.5292 1.11914L30.1206 12.1236H37.7695Z" fill="#FDAD00"/>
<path fill-rule="evenodd" clip-rule="evenodd" d="M0 12.1236L8.24028 1.11914L7.64896 12.1236H0Z" fill="#FDAD00"/>
<path fill-rule="evenodd" clip-rule="evenodd" d="M18.8836 0L7.64844 12.1237H30.1187L18.8836 0Z" fill="#FEEEB7"/>
</svg>
