<svg width="122" height="27" viewBox="0 0 122 27" fill="none" xmlns="http://www.w3.org/2000/svg">
<rect x="0.5" y="0.5" width="121" height="26" rx="13" fill="white" stroke="black"/>
<path d="M37.3611 12.2C37.2344 11.9667 37.0511 11.79 36.8111 11.67C36.5777 11.5433 36.3011 11.48 35.9811 11.48C35.4277 11.48 34.9844 11.6633 34.6511 12.03C34.3177 12.39 34.1511 12.8733 34.1511 13.48C34.1511 14.1267 34.3244 14.6333 34.6711 15C35.0244 15.36 35.5077 15.54 36.1211 15.54C36.5411 15.54 36.8944 15.4333 37.1811 15.22C37.4744 15.0067 37.6877 14.7 37.8211 14.3H35.6511V13.04H39.3711V14.63C39.2444 15.0567 39.0277 15.4533 38.7211 15.82C38.4211 16.1867 38.0377 16.4833 37.5711 16.71C37.1044 16.9367 36.5777 17.05 35.9911 17.05C35.2977 17.05 34.6777 16.9 34.1311 16.6C33.5911 16.2933 33.1677 15.87 32.8611 15.33C32.5611 14.79 32.4111 14.1733 32.4111 13.48C32.4111 12.7867 32.5611 12.17 32.8611 11.63C33.1677 11.0833 33.5911 10.66 34.1311 10.36C34.6711 10.0533 35.2877 9.9 35.9811 9.9C36.8211 9.9 37.5277 10.1033 38.1011 10.51C38.6811 10.9167 39.0644 11.48 39.2511 12.2H37.3611ZM45.5782 14.12C45.5782 14.28 45.5682 14.4467 45.5482 14.62H41.6782C41.7049 14.9667 41.8149 15.2333 42.0082 15.42C42.2082 15.6 42.4516 15.69 42.7382 15.69C43.1649 15.69 43.4616 15.51 43.6282 15.15H45.4482C45.3549 15.5167 45.1849 15.8467 44.9382 16.14C44.6982 16.4333 44.3949 16.6633 44.0282 16.83C43.6616 16.9967 43.2516 17.08 42.7982 17.08C42.2516 17.08 41.7649 16.9633 41.3382 16.73C40.9116 16.4967 40.5782 16.1633 40.3382 15.73C40.0982 15.2967 39.9782 14.79 39.9782 14.21C39.9782 13.63 40.0949 13.1233 40.3282 12.69C40.5682 12.2567 40.9016 11.9233 41.3282 11.69C41.7549 11.4567 42.2449 11.34 42.7982 11.34C43.3382 11.34 43.8182 11.4533 44.2382 11.68C44.6582 11.9067 44.9849 12.23 45.2182 12.65C45.4582 13.07 45.5782 13.56 45.5782 14.12ZM43.8282 13.67C43.8282 13.3767 43.7282 13.1433 43.5282 12.97C43.3282 12.7967 43.0782 12.71 42.7782 12.71C42.4916 12.71 42.2482 12.7933 42.0482 12.96C41.8549 13.1267 41.7349 13.3633 41.6882 13.67H43.8282ZM49.8804 11.36C50.5337 11.36 51.0537 11.5733 51.4404 12C51.8337 12.42 52.0304 13 52.0304 13.74V17H50.3304V13.97C50.3304 13.5967 50.2337 13.3067 50.0404 13.1C49.847 12.8933 49.587 12.79 49.2604 12.79C48.9337 12.79 48.6737 12.8933 48.4804 13.1C48.287 13.3067 48.1904 13.5967 48.1904 13.97V17H46.4804V11.42H48.1904V12.16C48.3637 11.9133 48.597 11.72 48.8904 11.58C49.1837 11.4333 49.5137 11.36 49.8804 11.36ZM59.7078 15.76H57.0878L56.6678 17H54.8778L57.4178 9.98H59.3978L61.9378 17H60.1278L59.7078 15.76ZM59.2678 14.44L58.3978 11.87L57.5378 14.44H59.2678ZM64.4208 9.98V17H62.7108V9.98H64.4208ZM73.0677 12.07C73.0677 12.65 72.8677 13.1333 72.4677 13.52C72.0744 13.9 71.471 14.09 70.6577 14.09H69.3177V17H68.4077V10.03H70.6577C71.4444 10.03 72.041 10.22 72.4477 10.6C72.861 10.98 73.0677 11.47 73.0677 12.07ZM70.6577 13.34C71.1644 13.34 71.5377 13.23 71.7777 13.01C72.0177 12.79 72.1377 12.4767 72.1377 12.07C72.1377 11.21 71.6444 10.78 70.6577 10.78H69.3177V13.34H70.6577ZM76.5887 17.09C76.0754 17.09 75.6087 16.9733 75.1887 16.74C74.7754 16.5067 74.4487 16.1767 74.2087 15.75C73.9754 15.3167 73.8587 14.8167 73.8587 14.25C73.8587 13.69 73.9787 13.1967 74.2187 12.77C74.4654 12.3367 74.7987 12.0067 75.2187 11.78C75.6387 11.5467 76.1087 11.43 76.6287 11.43C77.1487 11.43 77.6187 11.5467 78.0387 11.78C78.4587 12.0067 78.7887 12.3333 79.0287 12.76C79.2754 13.1867 79.3987 13.6833 79.3987 14.25C79.3987 14.8167 79.272 15.3167 79.0187 15.75C78.772 16.1767 78.4354 16.5067 78.0087 16.74C77.582 16.9733 77.1087 17.09 76.5887 17.09ZM76.5887 16.29C76.9154 16.29 77.222 16.2133 77.5087 16.06C77.7954 15.9067 78.0254 15.6767 78.1987 15.37C78.3787 15.0633 78.4687 14.69 78.4687 14.25C78.4687 13.81 78.382 13.4367 78.2087 13.13C78.0354 12.8233 77.8087 12.5967 77.5287 12.45C77.2487 12.2967 76.9454 12.22 76.6187 12.22C76.2854 12.22 75.9787 12.2967 75.6987 12.45C75.4254 12.5967 75.2054 12.8233 75.0387 13.13C74.872 13.4367 74.7887 13.81 74.7887 14.25C74.7887 14.6967 74.8687 15.0733 75.0287 15.38C75.1954 15.6867 75.4154 15.9167 75.6887 16.07C75.962 16.2167 76.262 16.29 76.5887 16.29ZM87.8952 11.52L86.1852 17H85.2452L83.9252 12.65L82.6052 17H81.6652L79.9452 11.52H80.8752L82.1352 16.12L83.4952 11.52H84.4252L85.7552 16.13L86.9952 11.52H87.8952ZM93.7983 14.05C93.7983 14.2233 93.7883 14.4067 93.7683 14.6H89.3883C89.4217 15.14 89.605 15.5633 89.9383 15.87C90.2783 16.17 90.6883 16.32 91.1683 16.32C91.5617 16.32 91.8883 16.23 92.1483 16.05C92.415 15.8633 92.6017 15.6167 92.7083 15.31H93.6883C93.5417 15.8367 93.2483 16.2667 92.8083 16.6C92.3683 16.9267 91.8217 17.09 91.1683 17.09C90.6483 17.09 90.1817 16.9733 89.7683 16.74C89.3617 16.5067 89.0417 16.1767 88.8083 15.75C88.575 15.3167 88.4583 14.8167 88.4583 14.25C88.4583 13.6833 88.5717 13.1867 88.7983 12.76C89.025 12.3333 89.3417 12.0067 89.7483 11.78C90.1617 11.5467 90.635 11.43 91.1683 11.43C91.6883 11.43 92.1483 11.5433 92.5483 11.77C92.9483 11.9967 93.255 12.31 93.4683 12.71C93.6883 13.1033 93.7983 13.55 93.7983 14.05ZM92.8583 13.86C92.8583 13.5133 92.7817 13.2167 92.6283 12.97C92.475 12.7167 92.265 12.5267 91.9983 12.4C91.7383 12.2667 91.4483 12.2 91.1283 12.2C90.6683 12.2 90.275 12.3467 89.9483 12.64C89.6283 12.9333 89.445 13.34 89.3983 13.86H92.8583ZM95.9095 12.41C96.0695 12.0967 96.2962 11.8533 96.5895 11.68C96.8895 11.5067 97.2528 11.42 97.6795 11.42V12.36H97.4395C96.4195 12.36 95.9095 12.9133 95.9095 14.02V17H94.9995V11.52H95.9095V12.41ZM103.73 14.05C103.73 14.2233 103.72 14.4067 103.7 14.6H99.32C99.3533 15.14 99.5366 15.5633 99.87 15.87C100.21 16.17 100.62 16.32 101.1 16.32C101.493 16.32 101.82 16.23 102.08 16.05C102.347 15.8633 102.533 15.6167 102.64 15.31H103.62C103.473 15.8367 103.18 16.2667 102.74 16.6C102.3 16.9267 101.753 17.09 101.1 17.09C100.58 17.09 100.113 16.9733 99.7 16.74C99.2933 16.5067 98.9733 16.1767 98.74 15.75C98.5066 15.3167 98.39 14.8167 98.39 14.25C98.39 13.6833 98.5033 13.1867 98.73 12.76C98.9566 12.3333 99.2733 12.0067 99.68 11.78C100.093 11.5467 100.567 11.43 101.1 11.43C101.62 11.43 102.08 11.5433 102.48 11.77C102.88 11.9967 103.187 12.31 103.4 12.71C103.62 13.1033 103.73 13.55 103.73 14.05ZM102.79 13.86C102.79 13.5133 102.713 13.2167 102.56 12.97C102.407 12.7167 102.197 12.5267 101.93 12.4C101.67 12.2667 101.38 12.2 101.06 12.2C100.6 12.2 100.207 12.3467 99.88 12.64C99.56 12.9333 99.3766 13.34 99.33 13.86H102.79ZM104.591 14.24C104.591 13.68 104.704 13.19 104.931 12.77C105.158 12.3433 105.468 12.0133 105.861 11.78C106.261 11.5467 106.708 11.43 107.201 11.43C107.628 11.43 108.024 11.53 108.391 11.73C108.758 11.9233 109.038 12.18 109.231 12.5V9.6H110.151V17H109.231V15.97C109.051 16.2967 108.784 16.5667 108.431 16.78C108.078 16.9867 107.664 17.09 107.191 17.09C106.704 17.09 106.261 16.97 105.861 16.73C105.468 16.49 105.158 16.1533 104.931 15.72C104.704 15.2867 104.591 14.7933 104.591 14.24ZM109.231 14.25C109.231 13.8367 109.148 13.4767 108.981 13.17C108.814 12.8633 108.588 12.63 108.301 12.47C108.021 12.3033 107.711 12.22 107.371 12.22C107.031 12.22 106.721 12.3 106.441 12.46C106.161 12.62 105.938 12.8533 105.771 13.16C105.604 13.4667 105.521 13.8267 105.521 14.24C105.521 14.66 105.604 15.0267 105.771 15.34C105.938 15.6467 106.161 15.8833 106.441 16.05C106.721 16.21 107.031 16.29 107.371 16.29C107.711 16.29 108.021 16.21 108.301 16.05C108.588 15.8833 108.814 15.6467 108.981 15.34C109.148 15.0267 109.231 14.6633 109.231 14.25Z" fill="black"/>
<g clip-path="url(#clip0_1_850)">
<path d="M22.9964 11.729C23.153 11.2576 23.2071 10.7582 23.1552 10.2642C23.1033 9.77017 22.9466 9.29293 22.6956 8.86433C22.3234 8.21649 21.7551 7.70358 21.0726 7.39955C20.3902 7.09552 19.6288 7.01607 18.8982 7.17266C18.4832 6.71099 17.954 6.36665 17.3637 6.17423C16.7735 5.98182 16.143 5.94809 15.5356 6.07645C14.9282 6.2048 14.3653 6.49072 13.9034 6.90548C13.4415 7.32025 13.0968 7.84925 12.9041 8.43937C12.4174 8.53917 11.9576 8.7417 11.5554 9.03343C11.1533 9.32516 10.818 9.69936 10.5721 10.131C10.1958 10.7778 10.035 11.5274 10.1129 12.2716C10.1908 13.0158 10.5033 13.7159 11.0053 14.2707C10.8482 14.7419 10.7935 15.2412 10.8449 15.7352C10.8963 16.2292 11.0526 16.7066 11.3034 17.1353C11.676 17.7834 12.2448 18.2964 12.9278 18.6004C13.6108 18.9045 14.3726 18.9838 15.1036 18.827C15.4333 19.1983 15.8385 19.495 16.292 19.6973C16.7455 19.8996 17.237 20.0028 17.7336 20C18.4824 20.0007 19.212 19.7634 19.8172 19.3224C20.4223 18.8815 20.8717 18.2596 21.1005 17.5466C21.5871 17.4466 22.0468 17.244 22.449 16.9523C22.8511 16.6606 23.1864 16.2864 23.4325 15.8549C23.8042 15.2091 23.9623 14.4622 23.884 13.7212C23.8056 12.9801 23.495 12.2828 22.9964 11.729ZM17.7336 19.0837C17.1203 19.0847 16.5263 18.8697 16.0557 18.4766L16.1385 18.4297L18.9258 16.8207C18.9952 16.78 19.0528 16.722 19.0929 16.6523C19.1331 16.5826 19.1544 16.5037 19.1549 16.4233V12.4934L20.3332 13.1751C20.339 13.1781 20.3441 13.1823 20.3479 13.1876C20.3518 13.1929 20.3543 13.199 20.3554 13.2054V16.462C20.3539 17.1568 20.0772 17.8228 19.5858 18.3142C19.0945 18.8055 18.4285 19.0822 17.7336 19.0837ZM12.0982 16.6772C11.7906 16.1461 11.6802 15.5236 11.7863 14.9192L11.8692 14.9689L14.6592 16.5779C14.7283 16.6184 14.8069 16.6397 14.8869 16.6397C14.967 16.6397 15.0456 16.6184 15.1146 16.5779L18.5229 14.6129V15.9735C18.5226 15.9805 18.5207 15.9874 18.5173 15.9936C18.514 15.9998 18.5092 16.0052 18.5035 16.0093L15.6803 17.6376C15.0778 17.9847 14.3622 18.0785 13.6906 17.8984C13.019 17.7184 12.4462 17.2791 12.0982 16.6772ZM11.3641 10.6058C11.6738 10.0713 12.1626 9.66363 12.744 9.45495V12.7667C12.7429 12.8467 12.7634 12.9255 12.8032 12.9949C12.843 13.0643 12.9007 13.1218 12.9703 13.1613L16.362 15.118L15.1836 15.7996C15.1772 15.803 15.1701 15.8047 15.1629 15.8047C15.1557 15.8047 15.1486 15.803 15.1422 15.7996L12.3245 14.1741C11.7231 13.8255 11.2844 13.2528 11.1044 12.5814C10.9244 11.91 11.0178 11.1947 11.3641 10.592V10.6058ZM21.0453 12.855L17.6425 10.879L18.8182 10.2C18.8246 10.1966 18.8317 10.1948 18.8389 10.1948C18.8461 10.1948 18.8532 10.1966 18.8596 10.2L21.6773 11.8282C22.1081 12.0768 22.4593 12.4428 22.6899 12.8836C22.9205 13.3243 23.021 13.8215 22.9796 14.3172C22.9382 14.8128 22.7567 15.2865 22.4562 15.6829C22.1558 16.0793 21.7487 16.382 21.2826 16.5557V13.244C21.2802 13.1641 21.257 13.0863 21.2154 13.018C21.1738 12.9498 21.1152 12.8937 21.0453 12.855ZM22.2182 11.0915L22.1354 11.0418L19.3508 9.41908C19.2814 9.37832 19.2023 9.35683 19.1217 9.35683C19.0412 9.35683 18.9621 9.37832 18.8927 9.41908L15.4872 11.384V10.0235C15.4865 10.0166 15.4877 10.0096 15.4906 10.0033C15.4935 9.99694 15.4981 9.99153 15.5038 9.98759L18.3215 8.36208C18.7533 8.1133 19.2471 7.99262 19.745 8.01415C20.2429 8.03569 20.7244 8.19855 21.1332 8.48369C21.5419 8.76883 21.861 9.16446 22.0532 9.62431C22.2453 10.0842 22.3026 10.5892 22.2183 11.0804L22.2182 11.0915ZM14.8441 13.5034L13.6658 12.8245C13.6599 12.821 13.6548 12.8162 13.651 12.8105C13.6472 12.8047 13.6446 12.7982 13.6436 12.7914V9.54327C13.6442 9.04497 13.7867 8.55715 14.0544 8.13685C14.3221 7.71655 14.7039 7.38114 15.1552 7.16982C15.6064 6.95851 16.1085 6.88004 16.6028 6.94357C17.097 7.00711 17.5629 7.21003 17.9461 7.52861L17.8633 7.57557L15.076 9.1844C15.0066 9.22509 14.949 9.28312 14.9088 9.3528C14.8687 9.42248 14.8473 9.5014 14.8469 9.58183L14.8441 13.5034ZM15.4844 12.1236L17.0022 11.2487L18.5229 12.1236V13.8732L17.0077 14.7481L15.4872 13.8732L15.4844 12.1236Z" fill="black"/>
</g>
<defs>
<clipPath id="clip0_1_850">
<rect width="14" height="14" fill="white" transform="translate(10 6)"/>
</clipPath>
</defs>
</svg>
