<svg width="62" height="18" viewBox="0 0 62 18" fill="none" xmlns="http://www.w3.org/2000/svg">
<rect y="5.15656" width="3.96063" height="4.87462" fill="white"/>
<rect y="11.2498" width="3.96063" height="6.24561" fill="white"/>
<rect x="5.4827" y="11.2496" width="3.96063" height="6.24561" fill="white"/>
<rect x="13.8615" y="11.2496" width="3.96063" height="6.24561" fill="white"/>
<path d="M9.44452 10.1072H5.56006V5.15643H12.415C16.2538 5.70483 17.5181 8.68546 17.6705 10.1072H13.5575C13.131 9.3151 12.3642 9.06629 12.0342 9.0409H9.44452V10.1072Z" fill="white"/>
<path fill-rule="evenodd" clip-rule="evenodd" d="M22.9253 12.2393H31.5321C31.8875 10.0305 31.2427 5.47576 25.8196 4.92738C20.8688 4.42675 18.6601 9.42117 19.1932 11.9347C19.244 13.5087 20.2443 16.8245 23.8393 17.4947C28.3331 18.3326 30.8466 15.4382 31.3036 13.4579H27.2668C27.0129 13.9911 26.0893 15.0183 24.5248 14.5243C23.0776 14.0673 22.7984 12.8232 22.9253 12.2393ZM22.9264 10.1061H27.7249C27.7249 9.39522 27.2679 7.97346 25.4399 7.97346C23.6119 7.97346 23.0026 9.39522 22.9264 10.1061Z" fill="white"/>
<path d="M32.2941 8.27908V5.15627H33.6651C33.6143 4.24227 33.8479 2.14007 35.1884 1.04328C36.5289 -0.0535092 38.5397 -0.0738201 39.3776 0.0531232V3.32829C37.6105 3.20643 37.3718 4.49617 37.4734 5.15627H39.5299V8.27908H37.4734V17.5713H33.6651V8.27908H32.2941Z" fill="white"/>
<path d="M40.8243 8.27908V5.15627H42.1953C42.1445 4.24227 42.3781 2.14007 43.7186 1.04328C45.0591 -0.0535092 47.0699 -0.0738201 47.9077 0.0531232V3.32829C46.1407 3.20643 45.902 4.49617 46.0036 5.15627H48.06V8.27908H46.0036V17.5713H42.1953V8.27908H40.8243Z" fill="white"/>
<path fill-rule="evenodd" clip-rule="evenodd" d="M58.2679 6.90802V5.08004H62V17.4951H58.2679V15.8956C57.7093 16.5049 56.2723 17.7084 54.9927 17.6474C54.9461 17.6452 54.8996 17.6431 54.8531 17.6409C53.3041 17.5692 51.8144 17.5002 49.9658 15.1339C48.4425 13.1841 48.9248 9.90388 49.3564 8.50751C49.6865 7.54274 50.9102 5.50658 53.1647 5.08004C56.0021 4.54321 57.3802 5.98172 58.1618 6.79762C58.1984 6.83588 58.2338 6.87277 58.2679 6.90802ZM55.5251 14.4478C56.9974 14.4478 58.1909 13.0497 58.1909 11.325C58.1909 9.60032 56.9974 8.20219 55.5251 8.20219C54.0528 8.20219 52.8593 9.60032 52.8593 11.325C52.8593 13.0497 54.0528 14.4478 55.5251 14.4478Z" fill="white"/>
</svg>
