<svg width="108" height="34" viewBox="0 0 108 34" fill="none" xmlns="http://www.w3.org/2000/svg">
<g clip-path="url(#clip0_1_799)">
<path d="M28.08 0H5.4C2.41766 0 0 2.45521 0 5.48387V28.5161C0 31.5449 2.41766 34 5.4 34H28.08C31.0624 34 33.48 31.5449 33.48 28.5161V5.48387C33.48 2.45521 31.0624 0 28.08 0Z" fill="#FFD02F"/>
<path fill-rule="evenodd" clip-rule="evenodd" d="M22.68 5.48389H19.44L22.14 10.4194L16.2 5.48389H12.96L15.93 11.5161L9.72 5.48389H6.48L9.72 13.1613L6.48 28.5161H9.72L15.93 12.0645L12.96 28.5161H16.2L22.14 10.9678L19.44 28.5161H22.68L28.62 9.3226L22.68 5.48389Z" fill="#050038"/>
<path fill-rule="evenodd" clip-rule="evenodd" d="M99.36 7.67728C104.76 7.67728 108 11.7708 108 16.9999C108 22.2095 104.76 26.3224 99.36 26.3224C93.96 26.3224 90.72 22.2289 90.72 16.9999C90.72 11.7708 93.96 7.67728 99.36 7.67728ZM75.06 8.77405V25.774H71.28V17.5482V13.4353V9.32244L75.06 8.77405ZM89.1 8.22566V12.0644L86.94 12.3386C85.05 12.6128 83.7 13.7095 83.7 15.8921V25.774H79.92V15.8921C79.92 11.1979 82.62 9.04824 86.94 8.49986L89.1 8.22566ZM51.3 8.22566C52.92 8.22566 54.5951 8.90553 55.62 10.4192C56.6487 9.04079 58.32 8.22566 60.48 8.22566C63.18 8.22566 66.42 9.87082 66.42 15.3547V25.774H62.64V15.3547C62.64 13.4353 61.4628 12.0644 59.67 12.0644C57.8772 12.0644 56.7 13.4353 56.7 15.3547V25.774H52.92V15.3547C52.92 13.4353 51.7425 12.0644 49.95 12.0644C48.1253 12.0644 46.98 13.4353 46.98 15.3547V25.774H43.2V15.3547V9.32244L46.98 8.77405V10.4192C48.0362 9.10048 49.14 8.22566 51.3 8.22566ZM99.36 11.516C96.12 11.516 94.5 13.9717 94.5 16.9999C94.5 20.028 96.12 22.4837 99.36 22.4837C102.6 22.4837 104.22 20.016 104.22 16.9999C104.22 13.9755 102.6 11.516 99.36 11.516ZM73.17 1.64502C74.52 1.64502 75.6 2.4676 75.6 4.11276C75.6 5.75792 74.52 6.5805 73.17 6.5805C71.82 6.5805 70.74 5.75792 70.74 4.11276C70.74 2.46759 71.82 1.64502 73.17 1.64502Z" fill="#050038"/>
</g>
<defs>
<clipPath id="clip0_1_799">
<rect width="108" height="34" fill="white"/>
</clipPath>
</defs>
</svg>
