<svg width="200" height="80" viewBox="0 0 200 80" fill="none" xmlns="http://www.w3.org/2000/svg">
  <path d="M40,30 L40,50 L45,50 L45,30 L40,30 Z" fill="#FF6B5B"/>
  <path d="M50,30 L50,50 L55,50 L55,42 L65,42 L65,50 L70,50 L70,30 L65,30 L65,37 L55,37 L55,30 L50,30 Z" fill="#1E3A4F"/>
  <path d="M75,30 L75,50 L95,50 L95,45 L80,45 L80,42 L95,42 L95,30 L75,30 Z M80,35 L90,35 L90,37 L80,37 L80,35 Z" fill="#1E3A4F"/>
  <path d="M100,30 L100,50 L105,50 L105,42 L115,42 L115,50 L120,50 L120,30 L115,30 L115,37 L105,37 L105,30 L100,30 Z" fill="#1E3A4F"/>
  <path d="M125,30 L125,50 L130,50 L130,42 L140,42 L140,50 L145,50 L145,30 L140,30 L140,37 L130,37 L130,30 L125,30 Z" fill="#1E3A4F"/>
  <path d="M150,30 L150,50 L170,50 L170,45 L155,45 L155,30 L150,30 Z" fill="#1E3A4F"/>
  <circle cx="170" cy="35" r="5" fill="#FF6B5B"/>
</svg>